<svg width="64" height="64" viewBox="0 0 64 64" fill="none" xmlns="http://www.w3.org/2000/svg">
<g clip-path="url(#clip0_2002_41)">
<path d="M48.853 37.0301C49.6916 29.6236 45.5881 22.4925 38.7762 19.5171C38.6249 15.8979 35.644 13 32 13C28.356 13 25.3751 15.8979 25.2238 19.5171C18.4115 22.4927 14.3084 29.6241 15.147 37.0301C12.0969 38.9706 11.0848 43.0105 12.9072 46.1774C14.1624 48.3584 16.4471 49.5789 18.7934 49.5789C19.9427 49.5787 21.0032 49.296 21.9281 48.8068C27.896 53.2343 36.0936 53.2421 42.0709 48.8077C42.9954 49.2964 44.0561 49.5789 45.2067 49.5789C47.5528 49.5786 49.8379 48.358 51.0929 46.1774C52.9152 43.0105 51.9031 38.9706 48.853 37.0301ZM24.4817 46.4493C25.7734 44.4382 26.0333 41.7641 24.6565 39.3718C23.3421 37.0878 20.912 35.8596 18.4579 35.9762C18.1126 30.5264 21.081 25.3512 25.9715 22.9199C27.1001 25.1099 29.3778 26.6112 32 26.6112C34.6222 26.6112 36.8998 25.1098 38.0285 22.9199C42.9207 25.3519 45.887 30.5284 45.5419 35.9762C40.095 35.7174 36.4992 41.746 39.5174 46.4497C34.9799 49.4849 29.0256 49.4898 24.4817 46.4493ZM35.3917 19.8056C35.3917 21.685 33.8733 23.2084 32 23.2084C30.1267 23.2084 28.6082 21.685 28.6082 19.8056C28.6082 17.9262 30.1267 16.4028 32 16.4028C33.8733 16.4028 35.3917 17.9262 35.3917 19.8056ZM48.612 42.7737C48.612 44.6531 47.0935 46.1765 45.2203 46.1765C43.347 46.1765 41.8285 44.6531 41.8285 42.7737C41.8285 40.8943 43.347 39.3709 45.2203 39.3709C47.0935 39.3709 48.612 40.8943 48.612 42.7737ZM22.1746 42.7737C22.1746 44.6531 20.6561 46.1765 18.7829 46.1765C16.9096 46.1765 15.3911 44.6531 15.3911 42.7737C15.3911 40.8943 16.9096 39.3709 18.7829 39.3709C20.6561 39.3709 22.1746 40.8943 22.1746 42.7737Z" fill="#1E674E" stroke="#1E674E" stroke-width="0.1"/>
</g>
<defs>
<clipPath id="clip0_2002_41">
<rect width="40" height="40" fill="white" transform="translate(12 12)"/>
</clipPath>
</defs>
</svg>
