<svg width="64" height="64" viewBox="0 0 64 64" fill="none" xmlns="http://www.w3.org/2000/svg">
<g clip-path="url(#clip0_2002_29)">
<path d="M51.6347 27.4453C50.8378 25.4453 48.9316 24.1563 46.7753 24.1563H40.58L36.7675 15.1797C35.9394 13.2188 34.0878 12 31.9472 12C29.8066 12 27.9628 13.2188 27.1269 15.1797L23.33 24.1563H17.2362C15.0878 24.1563 13.1816 25.4375 12.3847 27.4297C11.5878 29.4062 12.0722 31.6328 13.6112 33.1016L19.1659 38.4297L17.6269 45.7266C17.1894 47.8125 18.0487 49.9219 19.8222 51.1094C20.7128 51.7031 21.7284 52 22.7441 52C23.7753 52 24.8066 51.6953 25.705 51.0781L31.9628 46.8047L38.2206 51.0781C40.0019 52.2969 42.3066 52.3047 44.0956 51.1094C45.8691 49.9219 46.7362 47.8047 46.2909 45.7266C46.0644 44.6719 45.0331 44 43.9784 44.2187C42.9237 44.4453 42.2441 45.4766 42.4706 46.5312C42.6347 47.2969 42.1425 47.7188 41.9237 47.8594C41.7441 47.9766 41.1191 48.3281 40.4237 47.8516L33.0644 42.8203C32.4003 42.3672 31.5253 42.3672 30.8612 42.8203L23.5019 47.8516C22.8066 48.3281 22.1737 47.9766 22.0019 47.8594C21.7831 47.7109 21.2909 47.2891 21.455 46.5312L23.2206 38.1719C23.3612 37.5078 23.1503 36.8281 22.6581 36.3594L16.3066 30.2812C15.7441 29.7422 15.9081 29.125 16.0019 28.8828C16.1034 28.6328 16.4159 28.0625 17.2284 28.0625H24.6191C25.4003 28.0625 26.1112 27.5937 26.4159 26.875L30.7284 16.7109C31.0331 15.9844 31.6816 15.9062 31.9472 15.9062C32.2128 15.9062 32.8612 15.9844 33.1659 16.7031L37.4784 26.8672C37.7831 27.5859 38.4941 28.0547 39.2753 28.0547H46.7675C47.58 28.0547 47.9003 28.6328 48.0019 28.8828C48.0956 29.125 48.2597 29.7422 47.6894 30.2812L41.2675 36.3438C40.4862 37.0859 40.4472 38.3203 41.1894 39.1016C41.9316 39.8828 43.1659 39.9219 43.9472 39.1797L50.3691 33.1172C51.9237 31.6562 52.4237 29.4297 51.6347 27.4453Z" fill="#1E674E"/>
</g>
<defs>
<clipPath id="clip0_2002_29">
<rect width="40" height="40" fill="white" transform="translate(12 12)"/>
</clipPath>
</defs>
</svg>
