<svg width="64" height="64" viewBox="0 0 64 64" fill="none" xmlns="http://www.w3.org/2000/svg">
<g clip-path="url(#clip0_2002_35)">
<g clip-path="url(#clip1_2002_35)">
<path fill-rule="evenodd" clip-rule="evenodd" d="M50.7991 33.0078C50.8925 32.6145 50.9392 32.4178 50.9717 32.129C51.0041 31.8402 51.0019 31.6023 50.9975 31.1262C50.8588 16.2305 47.3265 13 32 13C16.6734 13 13.1412 16.2305 13.0025 31.1262C12.9981 31.6021 12.9959 31.8404 13.0283 32.129C13.0608 32.4178 13.1075 32.6145 13.2009 33.0076C16.0192 44.8749 26.0257 49.3006 30.1759 50.6507C30.8917 50.8836 31.2497 51 32 51C32.7504 51 33.1083 50.8836 33.8242 50.6507C37.9742 49.3008 47.9808 44.875 50.7991 33.0078ZM47.8307 31.1559C47.7607 23.6406 46.7597 20.4383 45.0201 18.7893C43.2257 17.0883 39.7704 16.1798 32 16.1798C24.2297 16.1798 20.7744 17.0883 18.9799 18.7893C17.2404 20.4383 16.2393 23.6406 16.1693 31.1559C16.1645 31.6762 16.1686 31.7123 16.1753 31.7722C16.1801 31.8152 16.1844 31.8429 16.1944 31.8915C16.2094 31.9653 16.231 32.058 16.2815 32.2703C18.7053 42.476 27.3213 46.3797 31.152 47.6258C31.3401 47.6869 31.4588 47.7254 31.5617 47.7561C31.6567 47.7846 31.7058 47.7964 31.7335 47.8025L31.7362 47.8029C31.7601 47.8082 31.8159 47.8202 32 47.8202C32.1842 47.8202 32.2399 47.8082 32.2638 47.8029L32.2665 47.8025C32.2942 47.7964 32.3433 47.7846 32.4383 47.7561C32.5412 47.7254 32.6599 47.6869 32.848 47.6258C36.6788 46.3797 45.2948 42.476 47.7186 32.2703C47.7689 32.058 47.7906 31.9653 47.8056 31.8915C47.8156 31.8429 47.8199 31.8155 47.8246 31.7725C47.8314 31.7126 47.8356 31.6764 47.8307 31.1559Z" fill="#1E674E" stroke="#1E674E" stroke-width="0.6"/>
<path d="M39.5443 28.4387C40.1519 27.8808 40.1519 26.9763 39.5443 26.4184C38.937 25.8605 37.9521 25.8605 37.3445 26.4184L30.6667 32.5511L28.6555 30.704C28.048 30.1462 27.0631 30.1462 26.4556 30.704C25.8481 31.262 25.8481 32.1665 26.4556 32.7244L29.5667 35.5815C30.1742 36.1395 31.1591 36.1395 31.7667 35.5815L39.5443 28.4387Z" fill="#1E674E" stroke="#1E674E" stroke-width="0.6"/>
</g>
</g>
<defs>
<clipPath id="clip0_2002_35">
<rect width="40" height="40" fill="white" transform="translate(12 12)"/>
</clipPath>
<clipPath id="clip1_2002_35">
<rect width="40" height="40" fill="white" transform="translate(12 12)"/>
</clipPath>
</defs>
</svg>
