<svg width="64" height="64" viewBox="0 0 64 64" fill="none" xmlns="http://www.w3.org/2000/svg">
<g clip-path="url(#clip0_2002_24)">
<path d="M31.9997 12.5833C23.1721 12.5833 15.9915 19.819 15.9915 28.7143C15.9915 35.336 23.0733 43.7335 25.2308 46.1398C27.0259 48.1645 30.3033 51.5833 31.9832 51.5833C33.6796 51.5833 36.9405 48.1811 38.7356 46.1564C40.9096 43.7335 47.9914 35.336 47.9914 28.7143C48.0079 19.819 40.8273 12.5833 31.9997 12.5833ZM36.9075 44.4803C34.3713 47.3513 32.609 48.7122 31.9997 49.0441C31.3903 48.7288 29.6281 47.3513 27.0753 44.4803C23.1062 40.0492 18.4619 33.2781 18.4619 28.7143C18.4619 21.1964 24.5391 15.0726 31.9997 15.0726C39.4603 15.0726 45.5375 21.1964 45.5375 28.7143C45.5375 33.2781 40.8931 40.0492 36.9075 44.4803Z" fill="#1E674E" stroke="#1E674E" stroke-width="1.2"/>
<path d="M31.9915 20.5833C27.5833 20.5833 23.9915 24.1751 23.9915 28.5833C23.9915 32.9914 27.5833 36.5833 31.9915 36.5833C36.3996 36.5833 39.9915 32.9914 39.9915 28.5833C39.9751 24.1588 36.3996 20.5833 31.9915 20.5833ZM31.9915 34.1179C28.9384 34.1179 26.4404 31.6363 26.4404 28.5669C26.4404 25.5139 28.9221 23.0159 31.9915 23.0159C35.0445 23.0159 37.5425 25.4975 37.5425 28.5669C37.5261 31.6363 35.0445 34.1179 31.9915 34.1179Z" fill="#1E674E" stroke="#1E674E" stroke-width="1.2"/>
</g>
<defs>
<clipPath id="clip0_2002_24">
<rect width="40" height="40" fill="white" transform="translate(12 12)"/>
</clipPath>
</defs>
</svg>
