<svg width="40" height="40" viewBox="0 0 40 40" fill="none" xmlns="http://www.w3.org/2000/svg">
<path d="M19.9999 10.8333C21.105 10.8333 22.1648 11.2723 22.9462 12.0537C23.7276 12.8351 24.1666 13.8949 24.1666 15C24.1666 15.5472 24.0588 16.089 23.8494 16.5945C23.64 17.1 23.3331 17.5593 22.9462 17.9463C22.5593 18.3332 22.1 18.6401 21.5944 18.8495C21.0889 19.0589 20.5471 19.1666 19.9999 19.1666C18.8949 19.1666 17.835 18.7277 17.0536 17.9463C16.2722 17.1649 15.8333 16.105 15.8333 15C15.8333 13.8949 16.2722 12.8351 17.0536 12.0537C17.835 11.2723 18.8949 10.8333 19.9999 10.8333ZM19.9999 3.33331C23.0941 3.33331 26.0616 4.56248 28.2495 6.7504C30.4374 8.93832 31.6666 11.9058 31.6666 15C31.6666 23.75 19.9999 36.6666 19.9999 36.6666C19.9999 36.6666 8.33325 23.75 8.33325 15C8.33325 11.9058 9.56242 8.93832 11.7503 6.7504C13.9383 4.56248 16.9057 3.33331 19.9999 3.33331ZM19.9999 6.66665C17.7898 6.66665 15.6702 7.54462 14.1074 9.10742C12.5446 10.6702 11.6666 12.7898 11.6666 15C11.6666 16.6666 11.6666 20 19.9999 31.1833C28.3333 20 28.3333 16.6666 28.3333 15C28.3333 12.7898 27.4553 10.6702 25.8925 9.10742C24.3297 7.54462 22.2101 6.66665 19.9999 6.66665Z" fill="white"/>
</svg>
