<svg width="40" height="40" viewBox="0 0 40 40" fill="none" xmlns="http://www.w3.org/2000/svg">
<path d="M15.8334 11.6667C17.2168 11.6667 18.3334 12.7833 18.3334 14.1667C18.3334 15.55 17.2168 16.6667 15.8334 16.6667C14.4501 16.6667 13.3334 15.55 13.3334 14.1667C13.3334 12.7833 14.4501 11.6667 15.8334 11.6667ZM24.1668 23.3333C25.5501 23.3333 26.6668 24.45 26.6668 25.8333C26.6668 27.2167 25.5501 28.3333 24.1668 28.3333C22.7834 28.3333 21.6668 27.2167 21.6668 25.8333C21.6668 24.45 22.7834 23.3333 24.1668 23.3333ZM14.0168 28.3333L11.6668 25.9833L25.9834 11.6667L28.3334 14.0167L14.0168 28.3333ZM31.0834 4.74999L32.1001 11.1833L37.9501 14.1667L35.0001 20L37.9668 25.8333L32.0668 28.8167L31.0501 35.25L24.5668 34.2333L19.9501 38.85L15.3168 34.1667L8.88345 35.2333L7.85011 28.75L2.03345 25.7833L5.00011 19.95L2.05011 14.1667L7.90011 11.15L8.91678 4.78333L15.3668 5.83333L20.0001 1.15833L24.6001 5.76666L31.0834 4.74999ZM33.5001 15.6167L29.1668 13.3333L28.3334 8.51666L23.5001 9.21666L20.0001 5.83333L16.5001 9.21666L11.6668 8.51666L10.8334 13.3333L6.50011 15.6167L8.66678 20L6.50011 24.3833L10.8334 26.6667L11.6668 31.4833L16.5001 30.7833L20.0001 34.1667L23.5001 30.7833L28.3334 31.4833L29.1668 26.6667L33.5001 24.3833L31.3334 20L33.5001 15.6167Z" fill="white"/>
</svg>
