<svg width="213" height="54" viewBox="0 0 213 54" fill="none" xmlns="http://www.w3.org/2000/svg">
<path d="M206.009 37.9231V27.5288L200.724 36.2788H199.138L193.941 27.4995V37.9231H190.594V22.2437H194.44L200.019 32.0506L205.862 22.2437H209.297L209.327 37.9231H206.009Z" fill="#1C1C20"/>
<path d="M178.601 38.128C177.015 38.128 175.586 37.7855 174.314 37.1003C173.041 36.4152 172.043 35.4658 171.319 34.2522C170.614 33.019 170.262 31.6292 170.262 30.0828C170.262 28.5364 170.614 27.1563 171.319 25.9427C172.043 24.7291 173.041 23.7797 174.314 23.0946C175.586 22.4095 177.015 22.0669 178.601 22.0669C180.206 22.0669 181.644 22.4095 182.917 23.0946C184.189 23.7797 185.178 24.7291 185.882 25.9427C186.607 27.1563 186.969 28.5364 186.969 30.0828C186.969 31.6292 186.607 33.019 185.882 34.2522C185.178 35.4658 184.189 36.4152 182.917 37.1003C181.644 37.7855 180.206 38.128 178.601 38.128ZM178.601 34.9863C179.951 34.9863 181.067 34.536 181.948 33.6356C182.829 32.7352 183.269 31.5509 183.269 30.0828C183.269 28.6147 182.829 27.4304 181.948 26.5299C181.067 25.6295 179.951 25.1793 178.601 25.1793C177.25 25.1793 176.134 25.6295 175.253 26.5299C174.392 27.4304 173.961 28.6147 173.961 30.0828C173.961 31.5509 174.392 32.7352 175.253 33.6356C176.134 34.536 177.25 34.9863 178.601 34.9863Z" fill="#1C1C20"/>
<path d="M160 22.067C161.527 22.067 162.887 22.3997 164.081 23.0653C165.295 23.7308 166.244 24.6704 166.929 25.884C167.614 27.0977 167.957 28.4973 167.957 30.0828C167.957 31.6684 167.614 33.0778 166.929 34.311C166.244 35.5246 165.295 36.4642 164.081 37.1298C162.887 37.7953 161.527 38.1281 160 38.1281C157.886 38.1281 156.212 37.4234 154.979 36.014V43.6188H151.309V22.2431H154.803V24.2985C155.41 23.5546 156.153 22.9968 157.034 22.6248C157.935 22.2529 158.923 22.067 160 22.067ZM159.589 34.9863C160.939 34.9863 162.045 34.5361 162.907 33.6357C163.788 32.7352 164.228 31.5509 164.228 30.0828C164.228 28.6147 163.788 27.4304 162.907 26.53C162.045 25.6296 160.939 25.1793 159.589 25.1793C158.708 25.1793 157.915 25.3849 157.21 25.796C156.506 26.1875 155.948 26.7551 155.537 27.499C155.126 28.2428 154.92 29.1041 154.92 30.0828C154.92 31.0616 155.126 31.9229 155.537 32.6667C155.948 33.4106 156.506 33.988 157.21 34.3991C157.915 34.7906 158.708 34.9863 159.589 34.9863Z" fill="#1C1C20"/>
<path d="M145.925 17.3691V37.9227H142.167V20.599H131.508V37.9227H127.75V17.3691H145.925Z" fill="#1C1C20"/>
<path d="M117.384 38.128C115.759 38.128 114.301 37.7855 113.009 37.1003C111.717 36.4152 110.709 35.4658 109.985 34.2522C109.261 33.019 108.898 31.6292 108.898 30.0828C108.898 28.5364 109.261 27.1563 109.985 25.9427C110.709 24.7291 111.707 23.7797 112.98 23.0946C114.272 22.4095 115.74 22.0669 117.384 22.0669C118.931 22.0669 120.281 22.3801 121.436 23.0065C122.611 23.6329 123.491 24.5333 124.079 25.7078L121.26 27.3521C120.81 26.6278 120.242 26.0895 119.557 25.7372C118.891 25.3652 118.157 25.1793 117.355 25.1793C115.985 25.1793 114.849 25.6295 113.949 26.5299C113.048 27.4108 112.598 28.5951 112.598 30.0828C112.598 31.5705 113.039 32.7645 113.919 33.665C114.82 34.5458 115.965 34.9863 117.355 34.9863C118.157 34.9863 118.891 34.8101 119.557 34.4577C120.242 34.0858 120.81 33.5377 121.26 32.8135L124.079 34.4577C123.472 35.6322 122.581 36.5425 121.407 37.1884C120.252 37.8148 118.911 38.128 117.384 38.128Z" fill="#1C1C20"/>
<path d="M106.231 30.1709C106.231 30.4253 106.211 30.7875 106.172 31.2573H93.8695C94.0848 32.4122 94.6427 33.3322 95.5431 34.0173C96.4632 34.6829 97.5985 35.0156 98.9492 35.0156C100.672 35.0156 102.091 34.448 103.207 33.3126L105.174 35.5735C104.469 36.4152 103.579 37.0514 102.502 37.482C101.425 37.9127 100.212 38.128 98.8611 38.128C97.1385 38.128 95.6214 37.7855 94.3099 37.1003C92.9984 36.4152 91.9805 35.4658 91.2563 34.2522C90.5516 33.019 90.1992 31.6292 90.1992 30.0828C90.1992 28.5559 90.5418 27.1857 91.2269 25.9721C91.9316 24.7389 92.9005 23.7797 94.1338 23.0946C95.367 22.4095 96.7568 22.0669 98.3032 22.0669C99.83 22.0669 101.19 22.4095 102.385 23.0946C103.598 23.7601 104.538 24.7095 105.203 25.9427C105.888 27.1563 106.231 28.5657 106.231 30.1709ZM98.3032 25.0031C97.1287 25.0031 96.1304 25.3555 95.3082 26.0602C94.5057 26.7453 94.0163 27.6653 93.8401 28.8202H102.737C102.58 27.6849 102.101 26.7648 101.298 26.0602C100.496 25.3555 99.4972 25.0031 98.3032 25.0031Z" fill="#1C1C20"/>
<path d="M84.7343 29.7604C86.6722 30.3476 87.6411 31.6004 87.6411 33.5187C87.6411 34.9281 87.1126 36.0145 86.0556 36.7779C84.9985 37.5414 83.4325 37.9231 81.3576 37.9231H73.3711V22.2437H81.0346C82.953 22.2437 84.4504 22.596 85.527 23.3007C86.6037 24.0054 87.142 25.0037 87.142 26.2956C87.142 27.0982 86.9266 27.7931 86.496 28.3804C86.0849 28.9676 85.4977 29.4276 84.7343 29.7604ZM76.8652 28.7914H80.7116C82.6104 28.7914 83.5598 28.1357 83.5598 26.8242C83.5598 25.5518 82.6104 24.9156 80.7116 24.9156H76.8652V28.7914ZM81.064 35.2511C83.0802 35.2511 84.0883 34.5954 84.0883 33.2838C84.0883 32.5987 83.8534 32.0898 83.3836 31.757C82.9138 31.4047 82.1798 31.2285 81.1814 31.2285H76.8652V35.2511H81.064Z" fill="#1C1C20"/>
<path d="M61.6955 22.0669C64.0053 22.0669 65.7671 22.6248 66.9807 23.7405C68.2139 24.8367 68.8305 26.5006 68.8305 28.7321V37.9225H65.3658V36.0139C64.9156 36.6991 64.2696 37.2276 63.4279 37.5995C62.6057 37.9518 61.6074 38.128 60.4329 38.128C59.2584 38.128 58.2308 37.9323 57.3499 37.5408C56.469 37.1297 55.7839 36.5718 55.2945 35.8671C54.8247 35.1429 54.5898 34.3305 54.5898 33.4301C54.5898 32.0207 55.1086 30.8951 56.146 30.0534C57.2031 29.1921 58.8571 28.7615 61.1083 28.7615H65.1602V28.5266C65.1602 27.4304 64.8275 26.5887 64.1619 26.0014C63.516 25.4142 62.547 25.1206 61.2551 25.1206C60.3742 25.1206 59.5031 25.2576 58.6418 25.5316C57.8001 25.8057 57.0856 26.1874 56.4984 26.6768L55.0596 24.0048C55.8818 23.3784 56.8703 22.8988 58.0252 22.5661C59.1801 22.2333 60.4036 22.0669 61.6955 22.0669ZM61.1963 35.4561C62.1164 35.4561 62.9287 35.2505 63.6334 34.8394C64.3577 34.4088 64.8666 33.802 65.1602 33.019V31.1985H61.3725C59.2584 31.1985 58.2014 31.8934 58.2014 33.2833C58.2014 33.9488 58.4657 34.4773 58.9942 34.8688C59.5227 35.2603 60.2567 35.4561 61.1963 35.4561Z" fill="#1C1C20"/>
<path d="M50.4977 17.3691V37.9227H46.6806V29.114H36.0515V37.9227H32.2344V17.3691H36.0515V25.8548H46.6806V17.3691H50.4977Z" fill="#1C1C20"/>
<path d="M20.1071 27.733L20.1071 31.4868L23.3993 31.4868L23.3993 19.346L6.73561 37.7754L0.00390625 37.7754L27.1514 11.0693L27.1514 23.7282L27.1514 37.7754L11.2602 37.7754L20.1071 27.733Z" fill="#1E674E"/>
</svg>
