<svg width="213" height="55" viewBox="0 0 213 55" fill="none" xmlns="http://www.w3.org/2000/svg">
<path d="M206.009 38.9229V28.5286L200.724 37.2786H199.138L193.941 28.4993V38.9229H190.594V23.2434H194.44L200.019 33.0504L205.862 23.2434H209.297L209.327 38.9229H206.009Z" fill="white"/>
<path d="M178.601 39.1278C177.015 39.1278 175.586 38.7852 174.314 38.1001C173.041 37.415 172.043 36.4656 171.319 35.252C170.614 34.0188 170.262 32.629 170.262 31.0826C170.262 29.5362 170.614 28.1561 171.319 26.9425C172.043 25.7289 173.041 24.7795 174.314 24.0944C175.586 23.4092 177.015 23.0667 178.601 23.0667C180.206 23.0667 181.644 23.4092 182.917 24.0944C184.189 24.7795 185.178 25.7289 185.882 26.9425C186.607 28.1561 186.969 29.5362 186.969 31.0826C186.969 32.629 186.607 34.0188 185.882 35.252C185.178 36.4656 184.189 37.415 182.917 38.1001C181.644 38.7852 180.206 39.1278 178.601 39.1278ZM178.601 35.9861C179.951 35.9861 181.067 35.5358 181.948 34.6354C182.829 33.735 183.269 32.5507 183.269 31.0826C183.269 29.6145 182.829 28.4302 181.948 27.5297C181.067 26.6293 179.951 26.1791 178.601 26.1791C177.25 26.1791 176.134 26.6293 175.253 27.5297C174.392 28.4302 173.961 29.6145 173.961 31.0826C173.961 32.5507 174.392 33.735 175.253 34.6354C176.134 35.5358 177.25 35.9861 178.601 35.9861Z" fill="white"/>
<path d="M160 23.0667C161.527 23.0667 162.887 23.3995 164.081 24.0651C165.295 24.7306 166.244 25.6702 166.93 26.8838C167.615 28.0975 167.957 29.4971 167.957 31.0826C167.957 32.6682 167.615 34.0776 166.93 35.3108C166.244 36.5244 165.295 37.464 164.081 38.1295C162.887 38.7951 161.527 39.1279 160 39.1279C157.886 39.1279 156.212 38.4232 154.979 37.0138V44.6186H151.309V23.2429H154.803V25.2983C155.41 24.5544 156.154 23.9965 157.034 23.6246C157.935 23.2527 158.923 23.0667 160 23.0667ZM159.589 35.9861C160.94 35.9861 162.046 35.5359 162.907 34.6354C163.788 33.735 164.228 32.5507 164.228 31.0826C164.228 29.6145 163.788 28.4302 162.907 27.5298C162.046 26.6294 160.94 26.1791 159.589 26.1791C158.708 26.1791 157.915 26.3847 157.211 26.7957C156.506 27.1872 155.948 27.7549 155.537 28.4987C155.126 29.2426 154.92 30.1039 154.92 31.0826C154.92 32.0614 155.126 32.9227 155.537 33.6665C155.948 34.4103 156.506 34.9878 157.211 35.3989C157.915 35.7904 158.708 35.9861 159.589 35.9861Z" fill="white"/>
<path d="M145.925 18.3689V38.9225H142.167V21.5988H131.508V38.9225H127.75V18.3689H145.925Z" fill="white"/>
<path d="M117.384 39.1278C115.759 39.1278 114.301 38.7852 113.009 38.1001C111.717 37.415 110.709 36.4656 109.985 35.252C109.261 34.0188 108.898 32.629 108.898 31.0826C108.898 29.5362 109.261 28.1561 109.985 26.9425C110.709 25.7289 111.707 24.7795 112.98 24.0944C114.272 23.4092 115.74 23.0667 117.384 23.0667C118.931 23.0667 120.281 23.3799 121.436 24.0063C122.611 24.6327 123.491 25.5331 124.079 26.7076L121.26 28.3519C120.81 27.6276 120.242 27.0893 119.557 26.737C118.891 26.365 118.157 26.1791 117.355 26.1791C115.985 26.1791 114.849 26.6293 113.949 27.5297C113.048 28.4106 112.598 29.5949 112.598 31.0826C112.598 32.5703 113.039 33.7643 113.919 34.6648C114.82 35.5456 115.965 35.9861 117.355 35.9861C118.157 35.9861 118.891 35.8099 119.557 35.4575C120.242 35.0856 120.81 34.5375 121.26 33.8133L124.079 35.4575C123.472 36.632 122.581 37.5423 121.407 38.1882C120.252 38.8146 118.911 39.1278 117.384 39.1278Z" fill="white"/>
<path d="M106.231 31.1707C106.231 31.4251 106.211 31.7873 106.172 32.2571H93.8695C94.0848 33.412 94.6427 34.332 95.5431 35.0171C96.4632 35.6826 97.5985 36.0154 98.9492 36.0154C100.672 36.0154 102.091 35.4477 103.207 34.3124L105.174 36.5733C104.469 37.415 103.579 38.0512 102.502 38.4818C101.425 38.9125 100.212 39.1278 98.8611 39.1278C97.1385 39.1278 95.6214 38.7852 94.3099 38.1001C92.9984 37.415 91.9805 36.4656 91.2563 35.252C90.5516 34.0188 90.1992 32.629 90.1992 31.0826C90.1992 29.5557 90.5418 28.1855 91.2269 26.9719C91.9316 25.7386 92.9005 24.7795 94.1338 24.0944C95.367 23.4092 96.7568 23.0667 98.3032 23.0667C99.83 23.0667 101.19 23.4092 102.385 24.0944C103.598 24.7599 104.538 25.7093 105.203 26.9425C105.888 28.1561 106.231 29.5655 106.231 31.1707ZM98.3032 26.0029C97.1287 26.0029 96.1304 26.3553 95.3082 27.0599C94.5057 27.7451 94.0163 28.6651 93.8401 29.82H102.737C102.58 28.6847 102.101 27.7646 101.298 27.0599C100.496 26.3553 99.4972 26.0029 98.3032 26.0029Z" fill="white"/>
<path d="M84.7343 30.7602C86.6722 31.3474 87.6411 32.6002 87.6411 34.5185C87.6411 35.9279 87.1126 37.0143 86.0556 37.7777C84.9985 38.5412 83.4325 38.9229 81.3576 38.9229H73.3711V23.2434H81.0346C82.953 23.2434 84.4504 23.5958 85.527 24.3005C86.6037 25.0052 87.142 26.0035 87.142 27.2954C87.142 28.098 86.9266 28.7929 86.496 29.3801C86.0849 29.9674 85.4977 30.4274 84.7343 30.7602ZM76.8652 29.7912H80.7116C82.6104 29.7912 83.5598 29.1355 83.5598 27.8239C83.5598 26.5516 82.6104 25.9154 80.7116 25.9154H76.8652V29.7912ZM81.064 36.2509C83.0802 36.2509 84.0883 35.5951 84.0883 34.2836C84.0883 33.5985 83.8534 33.0896 83.3836 32.7568C82.9138 32.4045 82.1798 32.2283 81.1814 32.2283H76.8652V36.2509H81.064Z" fill="white"/>
<path d="M61.6955 23.0667C64.0053 23.0667 65.7671 23.6246 66.9807 24.7403C68.2139 25.8365 68.8305 27.5004 68.8305 29.7319V38.9223H65.3658V37.0137C64.9156 37.6988 64.2696 38.2274 63.4279 38.5993C62.6057 38.9516 61.6074 39.1278 60.4329 39.1278C59.2584 39.1278 58.2308 38.9321 57.3499 38.5406C56.469 38.1295 55.7839 37.5716 55.2945 36.8669C54.8247 36.1427 54.5898 35.3303 54.5898 34.4299C54.5898 33.0205 55.1086 31.8949 56.146 31.0532C57.2031 30.1919 58.8571 29.7613 61.1083 29.7613H65.1602V29.5264C65.1602 28.4302 64.8275 27.5885 64.1619 27.0012C63.516 26.414 62.547 26.1204 61.2551 26.1204C60.3742 26.1204 59.5031 26.2574 58.6418 26.5314C57.8001 26.8055 57.0856 27.1872 56.4984 27.6766L55.0596 25.0046C55.8818 24.3782 56.8703 23.8986 58.0252 23.5658C59.1801 23.2331 60.4036 23.0667 61.6955 23.0667ZM61.1963 36.4558C62.1164 36.4558 62.9287 36.2503 63.6334 35.8392C64.3577 35.4086 64.8666 34.8018 65.1602 34.0188V32.1983H61.3725C59.2584 32.1983 58.2014 32.8932 58.2014 34.283C58.2014 34.9486 58.4657 35.4771 58.9942 35.8686C59.5227 36.2601 60.2567 36.4558 61.1963 36.4558Z" fill="white"/>
<path d="M50.4977 18.3689V38.9225H46.6806V30.1138H36.0515V38.9225H32.2344V18.3689H36.0515V26.8546H46.6806V18.3689H50.4977Z" fill="white"/>
<path d="M20.1071 28.7328L20.1071 32.4866L23.3993 32.4866L23.3993 20.3458L6.73561 38.7752L0.00390625 38.7752L27.1514 12.0691L27.1514 24.728L27.1514 38.7752L11.2602 38.7752L20.1071 28.7328Z" fill="#1E674E"/>
</svg>
