<svg width="24" height="24" viewBox="0 0 24 24" fill="none" xmlns="http://www.w3.org/2000/svg">
<path d="M19.2635 18.8498C19.654 19.2403 19.654 19.8735 19.2635 20.264C18.8729 20.6542 18.2397 20.6544 17.8493 20.264L3.70714 6.12184C3.31672 5.73142 3.31693 5.09818 3.70714 4.70763C4.09766 4.3171 4.73083 4.3171 5.12135 4.70763L19.2635 18.8498Z" fill="#0E0E0E"/>
<path d="M5.37964 20.2635C4.98911 20.654 4.35595 20.654 3.96542 20.2635C3.57522 19.8729 3.57501 19.2397 3.96542 18.8492L18.1076 4.70711C18.498 4.31669 19.1312 4.3169 19.5218 4.70711C19.9123 5.09763 19.9123 5.7308 19.5218 6.12132L5.37964 20.2635Z" fill="#0E0E0E"/>
</svg>
