<svg width="111" height="36" viewBox="0 0 111 36" fill="none" xmlns="http://www.w3.org/2000/svg">
<g clip-path="url(#clip0_629_409)">
<path d="M105.895 13.2595H110.987C110.343 8.29389 106.723 5.68384 101.691 5.68384C96.5986 5.68384 93.1931 8.38943 93.1931 13.0366C93.1931 18.3204 97.5803 19.4981 99.912 19.9757C102.919 20.5804 105.864 20.6441 105.864 23.3177C105.864 25.1321 104.391 26.0233 102.305 26.0233C99.7279 26.0233 98.01 24.6865 97.5803 22.2675H92.5488C92.8556 27.4876 96.5066 30.2886 101.876 30.2886C106.846 30.2886 110.926 27.9332 110.926 22.8404C110.926 17.3655 106.232 16.3788 102.949 15.8695C100.71 15.5194 98.2552 15.2011 98.2552 12.7501C98.2552 11.0313 99.5131 9.98097 101.63 9.98097C104.085 9.98097 105.557 11.4134 105.895 13.2595Z" fill="#2F2F2F"/>
<path d="M89.757 6.47961H84.9402V29.5564H89.757V6.47961Z" fill="#2F2F2F"/>
<path d="M70.3979 21.5035H76.6873C75.7055 23.9864 73.4965 25.1639 70.95 25.1639C66.4709 25.1639 64.3847 21.5671 64.3847 18.0021C64.3847 14.4053 66.3481 10.7449 70.9195 10.7449C73.7113 10.7449 75.7974 12.0817 76.5952 14.469L81.78 14.469C80.8904 9.08979 76.3498 6.00226 70.9809 6.00226C64.354 6.00226 59.3838 10.6812 59.3838 18.0658C59.3838 25.5459 64.7834 29.9703 70.95 29.9703C77.0247 29.9703 81.78 25.8643 81.78 19.4346V17.5565H70.3979V21.5035Z" fill="#2F2F2F"/>
<path d="M48.3697 6.0022C42.8473 6.0022 38.7668 9.59892 38.7975 15.583H43.7677C43.7063 12.9729 45.3016 10.5857 48.1242 10.5857C50.5787 10.5857 52.0206 12.3682 52.0206 14.4052C52.0206 16.4424 50.5786 17.5883 47.9094 18.8298C44.2585 20.5167 41.6508 21.5989 38.9816 22.5539V29.5565H57.5737V24.8456H44.81C44.81 24.8456 44.8525 24.8318 44.8734 24.8252C47.0444 24.1428 48.6753 23.4013 50.6094 22.522C54.7511 20.6123 57.1134 18.2249 57.1134 14.1507C57.1135 9.15327 53.5546 6.0022 48.3697 6.0022Z" fill="#2F2F2F"/>
<path d="M25.728 21.4398C19.4692 21.4717 18.4568 25.3868 18.1194 28.6971L17.966 30.1612H16.708L16.5547 28.6971C16.2173 25.3868 15.1741 21.4717 9.13014 21.4398C8.11773 19.2753 7.68821 17.5246 7.68821 15.5512C7.68821 10.6176 11.5846 6.00208 17.3523 6.00208C23.1201 6.00208 26.9551 10.5856 26.9551 15.5832C26.9552 17.5246 26.7711 19.2753 25.728 21.4398ZM17.2911 0.0180054C7.78033 0.0180054 -0.0124512 8.10295 -0.0124512 18.002C-0.0124512 27.9331 7.78033 36.0179 17.2911 36.0179C26.8937 36.0179 34.6558 27.9331 34.6558 18.002C34.6558 8.10297 26.8937 0.0180054 17.2911 0.0180054Z" fill="#29B24A"/>
</g>
<defs>
<clipPath id="clip0_629_409">
<rect width="111" height="36" fill="white"/>
</clipPath>
</defs>
</svg>
