<svg width="123" height="36" viewBox="0 0 123 36" fill="none" xmlns="http://www.w3.org/2000/svg">
<g clip-path="url(#clip0_629_383)">
<path d="M117.269 31.3472C119.682 31.3472 121.391 30.9057 122.665 29.9547V25.6415C121.358 26.5585 119.783 27.1359 117.571 27.1359C113.85 27.1359 112.309 24.2151 112.309 19.5962C112.309 14.7396 114.186 12.2604 117.604 12.2604C119.615 12.2604 121.592 12.9736 122.631 13.6529V9.16983C121.525 8.55851 119.615 8.117 117.001 8.117C110.331 8.117 106.879 12.9736 106.879 19.7661C106.913 27.2038 110.298 31.3472 117.269 31.3472ZM84.6589 29.3774V25.0642C83.0502 26.1849 80.3019 27.1698 77.7883 27.1698C73.9676 27.1698 72.5265 25.3359 72.2919 21.6H84.8935V18.8151C84.8935 11.0378 81.5085 8.117 76.3137 8.117C69.9458 8.117 66.9295 13.0415 66.9295 19.8C66.9295 27.5774 70.7167 31.3472 77.3526 31.3472C80.6706 31.3472 83.1172 30.4302 84.6589 29.3774ZM36.833 8.52455V17.3547H29.8619V8.52455H24.6335V30.9057H29.8619V21.5661H36.833V30.9057H42.0613V8.52455H36.833ZM65.6224 26.6944H63.3098V8.52455H48.094V10.4264C48.094 15.8944 47.7589 22.9585 45.9156 26.6944H44.2398V36H49.066V30.9057H60.7627V36H65.5889V26.6944H65.6224ZM101.316 30.9057H107.248L98.8692 18.8491L106.243 8.52455H100.981L93.6074 18.8491V8.52455H88.3791V30.9057H93.6074V19.9019L101.316 30.9057ZM76.1796 12.2604C78.7602 12.2604 79.5646 14.434 79.5646 17.2529V17.6944H72.2919C72.4259 14.1283 73.6995 12.2604 76.1796 12.2604ZM58.0815 26.6944H50.7082C52.1493 23.3321 52.5515 17.2189 52.5515 13.3472V12.6679H58.0815V26.6944Z" fill="#2F2F2F"/>
<path d="M20.2766 30.9057H14.9477V4.17736H12.5681C8.21117 4.17736 5.93215 6.38491 5.93215 9.67925C5.93215 13.4151 7.50736 15.1472 10.7583 17.3547L13.4395 19.1887L5.73106 30.9057H0L6.9376 20.4453C2.94932 17.5585 0.703815 14.7396 0.703815 9.98491C0.703815 4.04151 4.79264 0 12.5346 0H20.2431V30.9057H20.2766Z" fill="#FC3F1D"/>
</g>
<defs>
<clipPath id="clip0_629_383">
<rect width="123" height="36" fill="white"/>
</clipPath>
</defs>
</svg>
