<svg width="300" height="32" viewBox="0 0 300 32" fill="none" xmlns="http://www.w3.org/2000/svg">
<path d="M293.897 31.4819H280.18V30.14H284.918V1.8561H282.225C279.664 2.06255 277.852 3.85179 276.788 7.22384L275.989 10.6819H274.593L274.842 0.51416H299.484L299.733 10.6819H298.337L297.538 7.22384C297.505 7.15502 297.489 7.0518 297.489 6.91416C296.591 3.54212 294.795 1.8561 292.101 1.8561H289.208V30.14H292.6C292.766 30.14 292.933 30.1572 293.099 30.1916C293.631 30.2948 293.897 30.7249 293.897 31.4819Z" fill="#3D3D3D"/>
<path d="M255.899 0C259.291 0 262.284 1.01505 264.878 3.04516C268.702 6.0043 270.614 10.3226 270.614 16C270.614 20.8516 269.035 24.8086 265.875 27.871C263.049 30.6237 259.673 32 255.749 32C252.258 32 249.165 30.8989 246.471 28.6968C242.78 25.6688 240.934 21.3677 240.934 15.7935C240.934 10.9763 242.497 7.07097 245.623 4.07742C248.483 1.35914 251.908 0 255.899 0ZM255.899 30.5548C257.229 30.5548 258.46 30.2968 259.59 29.7806C263.614 27.957 265.626 23.2946 265.626 15.7935C265.593 6.29677 262.3 1.51398 255.749 1.44516C254.818 1.44516 253.937 1.54839 253.106 1.75484C248.317 3.06237 245.923 7.81075 245.923 16C245.923 18.4774 246.155 20.6624 246.621 22.5548C247.984 27.8882 251.077 30.5548 255.899 30.5548Z" fill="#3D3D3D"/>
<path d="M222.39 31.4819H210.169V30.14H214.16V1.8561H210.169V0.51416H224.934C227.528 0.51416 229.706 1.13351 231.469 2.37222C233.63 3.92061 234.711 5.98513 234.711 8.56578C234.711 9.63244 234.495 10.6819 234.062 11.7142C232.899 14.3292 230.737 16.0324 227.578 16.8238L235.609 30.14H237.504C237.737 30.14 237.937 30.1572 238.103 30.1916C238.502 30.2948 238.701 30.7249 238.701 31.4819H231.169L223.188 17.2884H218.449V30.14H222.39V31.4819ZM223.438 1.8561H218.449V15.7916H223.587C225.084 15.7916 226.397 15.3271 227.528 14.398C229.191 13.0217 230.022 11.0948 230.022 8.61739C230.022 7.51631 229.806 6.46685 229.374 5.469C228.276 3.0604 226.297 1.8561 223.438 1.8561Z" fill="#3D3D3D"/>
<path d="M191.276 31.4819H179.055V30.14H183.045V1.8561H179.055V0.51416H191.276V1.8561H187.335V15.7916L201.951 1.8561H197.96V0.51416H206.939C206.939 0.686203 206.922 0.858245 206.889 1.03029C206.789 1.58083 206.373 1.8561 205.642 1.8561C205.309 1.8561 204.993 1.8905 204.694 1.95932C204.062 2.13136 203.131 2.81954 201.901 4.02384L193.022 12.5916L206.041 30.14H207.388C207.554 30.14 207.72 30.1572 207.887 30.1916C208.419 30.2948 208.685 30.7249 208.685 31.4819H201.751L189.929 15.5851L187.335 18.1142V30.14H189.979C190.145 30.14 190.311 30.1572 190.478 30.1916C191.01 30.2948 191.276 30.7249 191.276 31.4819Z" fill="#3D3D3D"/>
<path d="M166.845 1.8561V0.51416H177.071V1.8561H173.08V31.2238L170.786 31.74L151.182 6.24319V30.14H154.125C154.291 30.14 154.458 30.1572 154.624 30.1916C155.156 30.2948 155.422 30.7249 155.422 31.4819H145.196V30.14H149.187V1.8561H145.196V0.51416H152.13L171.085 24.9787V1.8561H166.845Z" fill="#3D3D3D"/>
<path d="M144.71 31.4819H133.935V30.14H137.177L133.436 20.1271H123.011L119.27 30.14H121.714C121.88 30.14 122.046 30.1572 122.213 30.1916C122.745 30.2948 123.011 30.7249 123.011 31.4819H114.132V30.14H117.274L128.448 0.51416H130.294L141.717 30.14H143.413C143.579 30.14 143.745 30.1572 143.911 30.1916C144.443 30.2948 144.71 30.7249 144.71 31.4819ZM132.887 18.6303L128.199 6.13997L123.56 18.6303H132.887Z" fill="#3D3D3D"/>
<path d="M110.503 7.53352C110.503 8.29051 110.337 9.0819 110.004 9.90771C109.106 12.1099 107.46 13.6755 105.066 14.6045C106.496 14.8798 107.759 15.3443 108.857 15.998C111.218 17.512 112.398 19.6453 112.398 22.398C112.398 24.1529 111.883 25.7701 110.852 27.2496C108.857 30.0712 105.714 31.4819 101.424 31.4819H87.2578V30.14H91.2484V1.8561H87.2578V0.51416H101.275C103.469 0.51416 105.348 0.909858 106.911 1.70126C109.306 2.97437 110.503 4.91846 110.503 7.53352ZM100.077 1.8561H95.5382V13.9851H99.9777C101.308 13.9851 102.472 13.6582 103.469 13.0045C105.165 11.869 106.013 10.183 106.013 7.94642C106.013 7.4647 105.98 7.00018 105.914 6.55287C105.448 3.42169 103.503 1.8561 100.077 1.8561ZM100.925 15.3787H95.5382V30.14H101.175C102.705 30.14 104.018 29.6583 105.116 28.6948C106.778 27.2152 107.61 25.1507 107.61 22.5013C107.61 21.3658 107.41 20.3163 107.011 19.3529C105.98 16.7034 103.952 15.3787 100.925 15.3787Z" fill="#3D3D3D"/>
<path d="M83.279 23.3806C83.279 25.4796 82.5641 27.286 81.1341 28.8C79.0391 30.9333 76.0794 32 72.2551 32C68.9962 32 66.0864 31.1226 63.5258 29.3677C63.5258 30.0903 63.4925 30.5893 63.426 30.8645C63.293 31.3462 62.8274 31.5871 62.0293 31.5871V20.9032H63.5258C64.0911 27.2688 66.9177 30.486 72.0057 30.5548C73.3026 30.5548 74.4832 30.314 75.5473 29.8323C77.8086 28.7656 78.9393 27.028 78.9393 24.6194C78.9393 23.6903 78.7232 22.8301 78.2908 22.0387C77.4927 20.628 75.5972 19.2344 72.6043 17.8581C69.3786 16.4129 67.4831 15.5355 66.9177 15.2258C63.7918 13.4022 62.2288 11.0452 62.2288 8.15484C62.2288 6.22796 62.8939 4.54194 64.2241 3.09677C66.2194 1.03226 69.0128 0 72.6043 0C75.564 0 78.2243 0.670967 80.5854 2.0129C80.5854 1.6 80.6187 1.27312 80.6852 1.03226C80.8182 0.516129 81.2838 0.258065 82.0819 0.258065V9.29032H80.5854C80.6187 7.36344 80.1531 5.72903 79.1887 4.3871C77.7255 2.42581 75.5972 1.44516 72.8038 1.44516C71.6732 1.44516 70.6423 1.63441 69.7111 2.0129C67.5496 2.90753 66.4688 4.50753 66.4688 6.8129C66.4688 7.67312 66.6683 8.48172 67.0674 9.23871C67.8322 10.6151 69.6945 11.957 72.6542 13.2645C75.9131 14.7441 77.8585 15.6559 78.4904 16C81.6828 17.8581 83.279 20.3183 83.279 23.3806Z" fill="#3D3D3D"/>
<path d="M28.5195 1.8561V0.51416H40.7406V1.8561H36.7999V19.5593C36.7999 21.7959 37.0327 23.6884 37.4983 25.2367C38.5624 28.7808 41.1231 30.5529 45.1801 30.5529C45.5792 30.5529 45.9782 30.5357 46.3773 30.5013C51.166 29.9851 53.5603 26.3894 53.5603 19.7142V1.8561H49.5697V0.51416H59.2967V1.8561H55.3062V19.4045C55.3062 21.3314 55.1233 23.0518 54.7575 24.5658C53.5271 29.5206 49.9854 31.998 44.1326 31.998C36.4508 31.9636 32.5766 27.9206 32.5101 19.869V1.8561H28.5195Z" fill="#3D3D3D"/>
<path d="M12.2211 31.4819H0V30.14H3.99056V1.8561H0V0.51416H14.7651C17.3589 0.51416 19.5371 1.13351 21.2996 2.37222C23.4612 3.92061 24.542 5.98513 24.542 8.56578C24.542 9.63244 24.3258 10.6819 23.8935 11.7142C22.7296 14.3292 20.568 16.0324 17.4088 16.8238L25.4398 30.14H27.3354C27.5681 30.14 27.7677 30.1572 27.9339 30.1916C28.333 30.2948 28.5325 30.7249 28.5325 31.4819H21.0003L13.0192 17.2884H8.28042V30.14H12.2211V31.4819ZM13.2686 1.8561H8.28042V15.7916H13.4183C14.9147 15.7916 16.2283 15.3271 17.3589 14.398C19.0217 13.0217 19.853 11.0948 19.853 8.61739C19.853 7.51631 19.6369 6.46685 19.2046 5.469C18.1072 3.0604 16.1285 1.8561 13.2686 1.8561Z" fill="#3D3D3D"/>
</svg>
