<svg width="222" height="53" viewBox="0 0 222 53" fill="none" xmlns="http://www.w3.org/2000/svg">
<g clip-path="url(#clip0_201_222)">
<path d="M106.84 42.87H101.032V26.3406L97.0884 35.7055H93.9548L90.0108 26.3406V42.87H84.1758V14.1313H89.4975L95.5216 28.3531L101.546 14.1313H106.813V42.87H106.84Z" fill="#2F2F2F"/>
<path d="M129.452 30.1769H117.484C117.484 33.7994 117.782 36.0803 118.376 36.9926C118.889 37.744 119.646 38.1465 120.618 38.1465C121.563 38.1465 122.293 37.7708 122.806 37.0463C123.292 36.4559 123.508 35.5973 123.508 34.4166H129.316C129.208 37.2073 128.371 39.4076 126.858 41.0176C125.426 42.5472 123.346 43.2985 120.591 43.2985C117.944 43.2985 115.864 42.5203 114.324 40.964C113.216 39.837 112.514 38.2538 112.163 36.2144C111.811 34.1751 111.649 31.5991 111.649 28.4596C111.649 25.3469 111.811 22.744 112.163 20.7047C112.514 18.6653 113.243 17.0821 114.324 15.9551C115.837 14.4256 117.89 13.6743 120.537 13.6743C123.13 13.6743 125.21 14.4256 126.75 15.9551C127.804 17.0016 128.533 18.6653 128.884 20.9193C129.289 23.2002 129.452 26.286 129.452 30.1769ZM123.644 25.9104C123.644 22.744 123.373 20.7583 122.833 19.9802C122.293 19.2288 121.536 18.8263 120.591 18.8263C119.645 18.8263 118.889 19.202 118.349 19.9802C117.809 20.7852 117.538 22.7709 117.538 25.9104H123.644Z" fill="#2F2F2F"/>
<path d="M151.387 20.3563C151.63 22.2079 151.738 24.918 151.738 28.4869C151.738 29.0236 151.684 31.5191 151.17 33.6926C150.873 34.927 150.333 35.893 149.712 36.698C148.496 38.2006 146.794 38.9251 144.606 38.9251C143.498 38.9251 142.526 38.6837 141.689 38.1738C141.067 37.7713 140.5 37.2615 139.987 36.6443V42.8428H134.179V14.131H139.771V16.2508C140.068 15.6605 140.716 15.0701 141.689 14.453C142.526 13.9431 143.498 13.7016 144.606 13.7016C146.794 13.7016 148.496 14.453 149.712 15.9288C150.603 17.029 151.143 18.5048 151.387 20.3563ZM145.93 28.4869C145.93 23.63 145.606 20.7857 144.984 19.9807C144.444 19.2293 143.715 18.8268 142.85 18.8268C142.04 18.8268 141.391 19.0952 140.878 19.6318C140.284 20.2758 139.987 21.1882 139.987 22.3152V30.3116C139.987 31.5191 140.284 32.4046 140.878 32.9949C141.391 33.5048 142.04 33.7463 142.85 33.7463C143.769 33.7463 144.471 33.3706 144.984 32.6461C145.606 31.8411 145.93 31.1703 145.93 28.4869Z" fill="#2F2F2F"/>
<path d="M217.57 20.3563C217.813 22.2079 217.921 24.918 217.921 28.4869C217.921 29.0236 217.867 31.5191 217.354 33.6926C217.056 34.927 216.516 35.893 215.895 36.698C214.679 38.2006 212.977 38.9251 210.789 38.9251C209.682 38.9251 208.709 38.6837 207.872 38.1738C207.25 37.7713 206.683 37.2615 206.17 36.6443V42.8428H200.362V14.131H205.954V16.2508C206.251 15.6605 206.899 15.0701 207.872 14.453C208.709 13.9431 209.682 13.7016 210.789 13.7016C212.977 13.7016 214.679 14.453 215.895 15.9288C216.786 17.029 217.327 18.5048 217.57 20.3563ZM212.113 28.4869C212.113 23.63 211.789 20.7857 211.167 19.9807C210.627 19.2293 209.898 18.8268 209.033 18.8268C208.223 18.8268 207.575 19.0952 207.061 19.6318C206.467 20.2758 206.17 21.1882 206.17 22.3152V30.3116C206.17 31.5191 206.467 32.4046 207.061 32.9949C207.575 33.5048 208.223 33.7463 209.033 33.7463C209.952 33.7463 210.654 33.3706 211.167 32.6461C211.816 31.8411 212.113 31.1703 212.113 28.4869Z" fill="#2F2F2F"/>
<path d="M195.61 28.4869C195.61 34.4439 194.934 38.3616 193.584 40.2668C192.125 42.3062 189.829 43.3258 186.722 43.3258C183.615 43.3258 181.319 42.3062 179.861 40.2668C178.51 38.3885 177.834 34.4439 177.834 28.4869C177.834 22.5299 178.51 18.6122 179.861 16.707C181.319 14.7213 183.615 13.7016 186.722 13.7016C189.829 13.7016 192.125 14.6945 193.584 16.707C194.934 18.5853 195.61 22.503 195.61 28.4869ZM189.775 28.4869C189.775 23.791 189.504 20.9735 188.964 20.0343C188.451 19.2293 187.695 18.8268 186.722 18.8268C185.75 18.8268 184.993 19.2293 184.48 20.0343C183.94 20.9735 183.669 23.791 183.669 28.4869C183.669 33.2096 183.94 36.054 184.48 36.9931C184.966 37.7445 185.695 38.147 186.722 38.147C187.749 38.147 188.505 37.7713 188.964 36.9931C189.504 36.0271 189.775 33.2096 189.775 28.4869Z" fill="#2F2F2F"/>
<path d="M216.031 9.67665H215.059V6.85913H214.059V6.00045H217.031V6.85913H216.031V9.67665Z" fill="#2F2F2F"/>
<path d="M219.001 6.00045L219.704 8.30814H219.731L220.406 6.00045H222V9.67665H221.027L221.135 6.85913H221.081L220.163 9.67665H219.298L218.38 6.85913H218.326L218.434 9.67665H217.461V6.00045H219.001Z" fill="#2F2F2F"/>
<path d="M169.918 42.87H176.374L168.432 27.7091L175.563 14.1313H169.296L163.434 25.9112H162.381V14.1313H156.573V42.87H162.381V30.1778H163.596L169.918 42.87Z" fill="#2F2F2F"/>
<path d="M0 41.8429H17.7211L33.8213 5.00045H22.6916C18.6936 5.00045 15.1007 7.3618 13.5069 10.9843L0 41.8429Z" fill="#00B2E3"/>
<path d="M42.4932 41.8429H60.1872L76.2875 5.00045H65.1578C61.1597 5.00045 57.5669 7.3618 55.9731 10.9843L42.4932 41.8429Z" fill="#DF4832"/>
<path d="M17.7222 49.92H35.4162L51.5165 13.0776H40.3868C36.3887 13.0776 32.7959 15.439 31.2021 19.0615L17.7222 49.92Z" fill="#FFB548"/>
</g>
<defs>
<clipPath id="clip0_201_222">
<rect width="222" height="53" fill="white"/>
</clipPath>
</defs>
</svg>
