<svg width="36" height="36" viewBox="0 0 36 36" fill="none" xmlns="http://www.w3.org/2000/svg">
<path d="M16.7265 10.6006C17.4608 9.96679 18.539 9.96679 19.2733 10.6006L19.4257 10.7461L24.8192 16.4795L24.8935 16.5664C25.2406 17.0191 25.1948 17.6701 24.7704 18.0694C24.3461 18.4684 23.6942 18.4743 23.2636 18.1006L23.1806 18.0205L17.9999 12.5137L12.8192 18.0205C12.3936 18.473 11.6819 18.4949 11.2294 18.0694C10.7769 17.6437 10.755 16.9321 11.1806 16.4795L16.5741 10.7461L16.7265 10.6006Z" fill="#2F2F2F"/>
<path d="M16.875 24V12.75C16.875 12.1287 17.3787 11.625 18 11.625C18.6213 11.625 19.125 12.1287 19.125 12.75V24C19.125 24.6213 18.6213 25.125 18 25.125C17.3787 25.125 16.875 24.6213 16.875 24Z" fill="#2F2F2F"/>
</svg>
