<svg width="128" height="128" viewBox="0 0 128 128" fill="none" xmlns="http://www.w3.org/2000/svg">
<g opacity="0.2">
<path d="M63.9999 64V78.4M63.9999 64L76.3173 57.0715M63.9999 64L51.6826 57.0715M106.667 40L94.3493 46.9285M106.667 40V54.4M106.667 40L94.3493 33.0715M33.6505 81.0715L21.3333 88M21.3333 88L33.6505 94.9285M21.3333 88V73.6M21.3333 40L33.6505 46.9285M21.3333 40L33.6505 33.0715M21.3333 40V54.4M94.3493 81.0715L106.667 88M106.667 88L94.3493 94.9285M106.667 88V73.6M63.9999 16V30.4M63.9999 16L51.6822 22.9285M63.9999 16L76.3178 22.9285M63.9999 97.6V112M63.9999 112L76.3173 105.071M63.9999 112L51.6826 105.071" stroke="#2F2F2F" stroke-width="3" stroke-linecap="round"/>
</g>
</svg>
