<svg width="128" height="128" viewBox="0 0 128 128" fill="none" xmlns="http://www.w3.org/2000/svg">
<g opacity="0.2">
<path d="M37.3339 56H24.0001C21.0546 56 18.6667 58.3877 18.6667 61.3333V88C18.6667 90.9456 21.0546 93.3333 24.0001 93.3333H40.0001M111.725 62.3499L100.169 93.6779C98.5025 98.1963 94.03 101.038 89.2337 100.602C78.7494 99.6475 60.2395 97.9307 46.7309 96.5056C41.3623 95.9387 37.3339 91.3963 37.3339 85.9979V58.9456C37.3339 56.0368 38.5218 53.254 40.6225 51.242L67.4812 25.5176C67.8524 25.1621 68.1899 24.7729 68.5382 24.3951C71.4065 21.2852 76.1153 20.4196 79.9803 22.3759C84.0833 24.4507 86.0523 29.1002 84.6395 33.3803L77.8347 47.6448C76.9905 49.4146 78.2811 51.4597 80.2417 51.4597H103.001C105.776 51.4597 108.394 52.702 110.101 54.8299C111.805 56.9579 112.408 59.7339 111.725 62.3499Z" stroke="#2F2F2F" stroke-width="3" stroke-linecap="round"/>
</g>
</svg>
