<svg width="40" height="40" viewBox="0 0 40 40" fill="none" xmlns="http://www.w3.org/2000/svg">
<path d="M38.1666 35.3334L31.3333 28.5C31.9999 26.8334 31.6666 24.6667 30.1666 23.3334C28.6666 21.8334 26.4999 21.5 24.6666 22.3334L27.8333 25.5L25.4999 27.8334L22.1666 24.5C21.3333 26.3334 21.6666 28.5 23.1666 30.1667C24.6666 31.6667 26.6666 32 28.3333 31.3334L35.1666 38.1667C35.4999 38.5 35.9999 38.5 36.1666 38.1667L37.8333 36.5C38.3333 36 38.3333 35.5 38.1666 35.3334ZM16.6666 20C20.3333 20 23.3333 17 23.3333 13.3334C23.3333 9.66669 20.3333 6.66669 16.6666 6.66669C12.9999 6.66669 9.99992 9.66669 9.99992 13.3334C9.99992 17 12.9999 20 16.6666 20ZM16.6666 10C18.4999 10 19.9999 11.5 19.9999 13.3334C19.9999 15.1667 18.4999 16.6667 16.6666 16.6667C14.8333 16.6667 13.3333 15.1667 13.3333 13.3334C13.3333 11.5 14.8333 10 16.6666 10ZM21.6666 33.3334H3.33325V28.3334C3.33325 23.8334 12.1666 21.6667 16.6666 21.6667C17.4999 21.6667 18.6666 21.8334 19.8333 22C19.1666 22.8334 18.8333 23.8334 18.4999 25C17.8333 25 17.3333 24.8334 16.6666 24.8334C11.6666 24.8334 6.49992 27.3334 6.49992 28.3334V30.1667H19.1666C19.6666 31.5 20.6666 32.5 21.6666 33.3334Z" fill="white"/>
</svg>
