<svg width="278" height="32" viewBox="0 0 278 32" fill="none" xmlns="http://www.w3.org/2000/svg">
<path d="M277.318 0L265.7 24.7587C264.307 27.1422 262.623 28.9448 260.647 30.1663C258.703 31.3879 257.406 31.9986 255.106 31.9986C253.324 31.9986 252.549 32.0607 250.638 31.3456V25.4291C251.999 25.8164 253.132 26.0101 254.039 26.0101C255.011 26.0101 255.885 25.8015 256.663 25.3844C257.44 24.9375 258.153 24.2522 258.801 23.3286L259.092 22.9711L245.682 0H254.088L261.837 14.0402L268.904 0H277.318Z" fill="#EC2126"/>
<path d="M230.179 0C232.929 0 235.309 0.462721 237.32 1.38816C239.361 2.31361 240.928 3.62714 242.022 5.32875C243.116 7.03037 243.663 9.04545 243.663 11.374C243.663 13.6727 243.116 15.6877 242.022 17.4192C240.928 19.1208 239.361 20.4344 237.32 21.3598C235.309 22.2554 232.929 22.7032 230.179 22.7032H223.925V31.3456H216.739V0H230.179ZM229.78 16.7923C231.938 16.7923 233.58 16.3296 234.703 15.4041C235.827 14.4488 236.389 13.1054 236.389 11.374C236.389 9.61265 235.827 8.26927 234.703 7.34383C233.58 6.38854 231.938 5.91089 229.78 5.91089H223.925V16.7923H229.78Z" fill="#EC2126"/>
<path d="M199.912 31.3449C198.964 31.3449 198.166 31.0307 197.518 30.4023C196.87 29.774 196.546 28.9885 196.546 28.046C196.546 27.0811 196.87 26.3068 197.518 25.7234C198.166 25.1175 198.964 24.8145 199.912 24.8145C200.86 24.8145 201.658 25.1175 202.306 25.7234C202.954 26.3068 203.277 27.0811 203.277 28.046C203.277 28.9885 202.954 29.774 202.306 30.4023C201.658 31.0307 200.86 31.3449 199.912 31.3449Z" fill="#005FA8"/>
<path d="M190.364 5.89919H179.48V31.2836H171.707V5.89919H160.872V0H190.364V5.89919Z" fill="#005FA8"/>
<path d="M156.389 0V31.2836H148.518V17.8043H135.76V31.2836H127.889V0H135.76V11.6816H148.518V0H156.389Z" fill="#005FA8"/>
<path d="M75.7024 0C78.5212 0 80.9612 0.462721 83.0222 1.38816C85.1136 2.31361 86.7201 3.62714 87.8415 5.32875C88.963 7.03037 89.5237 9.04545 89.5237 11.374C89.5237 13.6727 88.963 15.6877 87.8415 17.4192C86.7201 19.1208 85.1136 20.4344 83.0222 21.3598C80.9612 22.2554 78.5212 22.7032 75.7024 22.7032H69.2918V31.3456H61.9265V0H75.7024ZM75.2932 16.7923C77.5058 16.7923 79.188 16.3296 80.3398 15.4041C81.4916 14.4488 82.0675 13.1054 82.0675 11.374C82.0675 9.61265 81.4916 8.26927 80.3398 7.34383C79.188 6.38854 77.5058 5.91089 75.2932 5.91089H69.2918V16.7923H75.2932Z" fill="#005FA8"/>
<path d="M47.4548 25.7948H33.9928L31.9735 31.2836H23.8962L36.0121 0H45.4355L57.5514 31.2836H48.801L47.4548 25.7948ZM45.099 19.9175L40.3873 7.50989L36.0121 19.9175H45.099Z" fill="#005FA8"/>
<path d="M113.755 25.7948H100.293L98.2738 31.2836H90.1965L102.312 0H111.736L123.852 31.2836H115.101L113.755 25.7948ZM111.399 19.9175L106.688 7.50989L102.312 19.9175H111.399Z" fill="#005FA8"/>
<path d="M22.1674 5.91089H8.07723V31.3456H0V0H22.2124L22.1674 5.91089Z" fill="#005FA8"/>
</svg>
