<svg width="400" height="32" viewBox="0 0 400 32" fill="none" xmlns="http://www.w3.org/2000/svg">
<path d="M373.53 31.7302V0.27002H376.29L398.145 27.5954H396.697V0.27002H400V31.7302H397.24L375.431 4.40479H376.879V31.7302H373.53Z" fill="black"/>
<path d="M358.518 31.7302V0.27002H361.866V31.7302H358.518Z" fill="black"/>
<path d="M337.332 31.7302V3.14638H326.201V0.27002H351.811V3.14638H340.68V31.7302H337.332Z" fill="black"/>
<path d="M302.54 14.3372H319.281V17.1686H302.54V14.3372ZM302.902 28.8538H321.951V31.7302H299.553V0.27002H321.272V3.14638H302.902V28.8538Z" fill="black"/>
<path d="M271.551 31.7302V0.27002H274.9V28.8538H292.637V31.7302H271.551Z" fill="black"/>
<path d="M243.549 31.7302V0.27002H246.898V28.8538H264.635V31.7302H243.549Z" fill="black"/>
<path d="M219.115 31.9999C215.073 31.9999 211.891 30.8463 209.568 28.5392C207.245 26.2322 206.084 22.8165 206.084 18.2922V0.27002H209.432V18.1574C209.432 21.8727 210.277 24.6142 211.966 26.382C213.655 28.1497 216.038 29.0336 219.115 29.0336C222.222 29.0336 224.62 28.1497 226.31 26.382C227.999 24.6142 228.844 21.8727 228.844 18.1574V0.27002H232.101V18.2922C232.101 22.8165 230.94 26.2322 228.617 28.5392C226.325 30.8463 223.157 31.9999 219.115 31.9999Z" fill="black"/>
<path d="M170.885 31.7302V0.27002H184.55C188.079 0.27002 190.809 0.974128 192.74 2.38235C194.701 3.79056 195.681 5.78304 195.681 8.35978C195.681 10.0676 195.274 11.5058 194.459 12.6743C193.675 13.8428 192.589 14.7267 191.201 15.326C189.844 15.9252 188.351 16.2248 186.722 16.2248L187.491 15.1462C189.512 15.1462 191.247 15.4608 192.695 16.09C194.173 16.6892 195.319 17.6031 196.133 18.8315C196.948 20.03 197.355 21.5281 197.355 23.3258C197.355 25.9925 196.36 28.0598 194.369 29.528C192.408 30.9961 189.437 31.7302 185.455 31.7302H170.885ZM174.234 28.9887H185.41C188.185 28.9887 190.312 28.5243 191.79 27.5954C193.268 26.6366 194.007 25.1236 194.007 23.0562C194.007 21.0188 193.268 19.5356 191.79 18.6068C190.312 17.648 188.185 17.1686 185.41 17.1686H173.872V14.4271H184.324C186.858 14.4271 188.818 13.9477 190.206 12.9889C191.624 12.0301 192.333 10.6069 192.333 8.71932C192.333 6.80175 191.624 5.37855 190.206 4.44973C188.818 3.49094 186.858 3.01155 184.324 3.01155H174.234V28.9887Z" fill="black"/>
<path d="M129.683 31.7302V0.27002H133.032V28.8538H150.769V31.7302H129.683Z" fill="black"/>
<path d="M90.8262 31.7302L105.305 0.27002H108.608L123.088 31.7302H119.558L106.256 2.20257H107.613L94.3102 31.7302H90.8262ZM96.5274 23.3258L97.5228 20.6292H115.939L116.934 23.3258H96.5274Z" fill="black"/>
<path d="M73.4303 31.9995C71.0171 31.9995 68.7848 31.61 66.7336 30.831C64.7126 30.022 62.9479 28.8984 61.4396 27.4602C59.9616 26.0221 58.8002 24.3292 57.9556 22.3817C57.1411 20.4341 56.7339 18.3068 56.7339 15.9997C56.7339 13.6927 57.1411 11.5654 57.9556 9.61782C58.8002 7.67029 59.9766 5.97743 61.4849 4.53925C62.9931 3.10107 64.7578 1.99248 66.7789 1.21346C68.8301 0.404488 71.0623 0 73.4755 0C75.8887 0 78.0908 0.374525 80.0817 1.12358C82.1027 1.87263 83.8221 3.01119 85.2399 4.53925L83.1585 6.65158C81.8312 5.33325 80.3682 4.38944 78.7695 3.82016C77.1707 3.25088 75.4513 2.96624 73.6113 2.96624C71.6505 2.96624 69.8406 3.29583 68.1815 3.95499C66.5526 4.5842 65.1198 5.49804 63.883 6.69652C62.6764 7.86504 61.7262 9.2433 61.0324 10.8313C60.3688 12.3893 60.037 14.1121 60.037 15.9997C60.037 17.8574 60.3688 19.5802 61.0324 21.1682C61.7262 22.7562 62.6764 24.1494 63.883 25.3479C65.1198 26.5164 66.5526 27.4303 68.1815 28.0894C69.8406 28.7186 71.6354 29.0332 73.566 29.0332C75.3759 29.0332 77.0802 28.7636 78.679 28.2243C80.3079 27.685 81.8011 26.7711 83.1585 25.4827L85.0589 27.9996C83.5506 29.3179 81.786 30.3216 79.7649 31.0107C77.7439 31.6699 75.6323 31.9995 73.4303 31.9995ZM81.8463 27.5951V15.9997H85.0589V27.9996L81.8463 27.5951Z" fill="black"/>
<path d="M30.9883 14.3372H47.7299V17.1686H30.9883V14.3372ZM31.3503 28.8538H50.3995V31.7302H28.002V0.27002H49.7208V3.14638H31.3503V28.8538Z" fill="black"/>
<path d="M0 31.7303V0.270142H3.34832V28.854H21.0854V31.7303H0Z" fill="black"/>
</svg>
