<svg width="64" height="64" viewBox="0 0 64 64" fill="none" xmlns="http://www.w3.org/2000/svg">
<path d="M43.6666 42.5166V45.3333C43.6666 46.2173 43.3155 47.0652 42.6903 47.6903C42.0652 48.3154 41.2174 48.6666 40.3333 48.6666H23.6666C22.7826 48.6666 21.9347 48.3154 21.3096 47.6903C20.6845 47.0652 20.3333 46.2173 20.3333 45.3333V39.1666C19.5666 38.8666 18.5833 38.6666 17 38.6666C16.558 38.6666 16.134 38.491 15.8215 38.1784C15.5089 37.8659 15.3333 37.4419 15.3333 36.9999C15.3333 36.5579 15.5089 36.134 15.8215 35.8214C16.134 35.5088 16.558 35.3333 17 35.3333C18.3666 35.3333 19.45 35.4666 20.3333 35.6833V32.4999C19.5666 32.1999 18.5833 31.9999 17 31.9999C16.558 31.9999 16.134 31.8243 15.8215 31.5118C15.5089 31.1992 15.3333 30.7753 15.3333 30.3333C15.3333 29.8912 15.5089 29.4673 15.8215 29.1547C16.134 28.8422 16.558 28.6666 17 28.6666C18.3666 28.6666 19.45 28.7999 20.3333 29.0166V25.8333C19.5666 25.5333 18.5833 25.3333 17 25.3333C16.558 25.3333 16.134 25.1577 15.8215 24.8451C15.5089 24.5325 15.3333 24.1086 15.3333 23.6666C15.3333 23.2246 15.5089 22.8006 15.8215 22.4881C16.134 22.1755 16.558 21.9999 17 21.9999C18.3666 21.9999 19.45 22.1333 20.3333 22.3499V18.6666C20.3333 17.7825 20.6845 16.9347 21.3096 16.3096C21.9347 15.6844 22.7826 15.3333 23.6666 15.3333H40.3333C41.2174 15.3333 42.0652 15.6844 42.6903 16.3096C43.3155 16.9347 43.6666 17.7825 43.6666 18.6666V22.2666C46.6333 22.7833 47.9 23.8833 48.1833 24.1499C48.8333 24.7999 48.8333 25.8666 48.1833 26.5166C47.5333 27.1666 46.6666 27.1499 45.8166 26.5166C45.8166 26.5166 44.0833 25.3333 40.3333 25.3333C38.2333 25.3333 36.85 26.0166 35.25 26.8333C33.5166 27.6833 31.5666 28.6666 28.6666 28.6666C28.0666 28.6666 27.5166 28.6666 27 28.5999V25.2499C27.5 25.3333 28.05 25.3333 28.6666 25.3333C30.7666 25.3333 32.15 24.6499 33.75 23.8499C35.4833 22.9833 37.45 21.9999 40.3333 21.9999V18.6666H23.6666V45.3333H40.3333V41.9999C42.8333 41.9999 43.6166 42.4833 43.6666 42.5166ZM40.3333 28.6666C37.45 28.6666 35.4833 29.6499 33.75 30.5166C32.15 31.3166 30.7666 31.9999 28.6666 31.9999C28.05 31.9999 27.5 31.9999 27 31.9166V35.2666C27.5166 35.3333 28.0666 35.3333 28.6666 35.3333C31.5666 35.3333 33.5166 34.3499 35.25 33.4999C36.85 32.6999 38.2333 31.9999 40.3333 31.9999C44.0833 31.9999 45.8166 33.1833 45.8166 33.1833C46.6666 33.8333 47.5333 33.8333 48.1833 33.1833C48.8333 32.5333 48.8333 31.4833 48.1833 30.8166C47.8333 30.4666 45.75 28.6666 40.3333 28.6666ZM40.3333 35.3333C37.45 35.3333 35.4833 36.3166 33.75 37.1833C32.15 37.9833 30.7666 38.6666 28.6666 38.6666C28.05 38.6666 27.5 38.6666 27 38.5833V41.9332C27.5166 41.9999 28.0666 41.9999 28.6666 41.9999C31.5666 41.9999 33.5166 41.0166 35.25 40.1666C36.85 39.3666 38.2333 38.6666 40.3333 38.6666C44.0833 38.6666 45.8166 39.8499 45.8166 39.8499C46.6666 40.4999 47.5333 40.4999 48.1833 39.8499C48.8333 39.1999 48.8333 38.1499 48.1833 37.4833C47.8333 37.1333 45.75 35.3333 40.3333 35.3333Z" fill="#1E674E"/>
</svg>
