<svg width="64" height="64" viewBox="0 0 64 64" fill="none" xmlns="http://www.w3.org/2000/svg">
<path d="M15.3334 47V43.6667H45.3334V47H15.3334ZM45.3334 25.3333V20.3333H42V25.3333H45.3334ZM45.3334 17C46.2174 17 47.0653 17.3512 47.6904 17.9763C48.3155 18.6014 48.6667 19.4493 48.6667 20.3333V25.3333C48.6667 26.2174 48.3155 27.0652 47.6904 27.6904C47.0653 28.3155 46.2174 28.6667 45.3334 28.6667H42V33.6667C42 35.4348 41.2977 37.1305 40.0474 38.3807C38.7972 39.631 37.1015 40.3333 35.3334 40.3333H25.3334C23.5653 40.3333 21.8696 39.631 20.6193 38.3807C19.3691 37.1305 18.6667 35.4348 18.6667 33.6667V17H45.3334ZM38.6667 20.3333H22V33.6667C22 34.5507 22.3512 35.3986 22.9764 36.0237C23.6015 36.6488 24.4493 37 25.3334 37H35.3334C36.2174 37 37.0653 36.6488 37.6904 36.0237C38.3155 35.3986 38.6667 34.5507 38.6667 33.6667V20.3333Z" fill="#1E674E"/>
</svg>
