<svg width="64" height="64" viewBox="0 0 64 64" fill="none" xmlns="http://www.w3.org/2000/svg">
<path d="M46.3166 36.7332L48.25 39.0832L40.3333 46.9999L35.75 41.9999L37.6833 40.0666L40.3333 42.7166L46.3166 36.7332ZM43.7833 20.2166L41.4333 22.5666C43.85 24.9666 45.3333 28.3166 45.3333 31.9999V32.5666C46.4666 32.9832 47.55 33.5999 48.4666 34.3832C48.5833 33.5999 48.6666 32.8332 48.6666 31.9999C48.6666 27.3999 46.8 23.2332 43.7833 20.2166ZM38.6 32.5999C39.6666 32.2166 40.8 31.9999 42 31.9999C42 29.2499 40.8833 26.7499 39.0666 24.9332L36.7166 27.2832C37.9166 28.4832 38.6666 30.1499 38.6666 31.9999C38.6666 32.1999 38.6166 32.3999 38.6 32.5999ZM32 28.6666C30.1666 28.6666 28.6666 30.1666 28.6666 31.9999C28.6666 33.8332 30.1666 35.3332 32 35.3332C33.8333 35.3332 35.3333 33.8332 35.3333 31.9999C35.3333 30.1666 33.8333 28.6666 32 28.6666ZM22.5666 22.5666L20.2166 20.2166C17.2 23.2332 15.3333 27.3999 15.3333 31.9999C15.3333 36.5999 17.2 40.7666 20.2166 43.7832L22.5666 41.4332C20.15 39.0332 18.6666 35.6999 18.6666 31.9999C18.6666 28.3166 20.15 24.9666 22.5666 22.5666ZM24.9333 24.9332C23.1166 26.7499 22 29.2499 22 31.9999C22 34.7499 23.1166 37.2499 24.9333 39.0666L27.2833 36.7166C26.0833 35.5166 25.3333 33.8499 25.3333 31.9999C25.3333 30.1499 26.0833 28.4832 27.2833 27.2832L24.9333 24.9332Z" fill="#1E674E"/>
</svg>
