<svg width="64" height="64" viewBox="0 0 64 64" fill="none" xmlns="http://www.w3.org/2000/svg">
<path d="M29.6834 33.0333L29.75 32.9666L30.6 32.0499L30.6334 31.9999L30.6 31.9499C30.3334 31.6333 30.0334 31.3333 29.7667 31.0333L29.6834 30.9666C26.0334 26.9499 23.7167 24.5499 21.3 23.8666C20.8167 23.7333 20.3334 23.6666 19.8167 23.6666C17.3167 23.6666 15.3334 25.7499 15.3334 28.2499C15.3334 29.2999 15.65 30.3333 16.25 31.1666C16.4667 31.4666 16.7167 31.7499 17 31.9999C16.7167 32.2499 16.4667 32.5333 16.25 32.8333C15.65 33.6666 15.3334 34.7333 15.3334 35.8499C15.3334 38.3499 17.4167 40.3333 19.9167 40.3333C20.3834 40.3333 20.85 40.2666 21.3 40.1499C23.6667 39.4999 26 37.0833 29.6834 33.0333ZM26.1167 31.9999C24.6167 33.6166 23.4667 34.8166 22.4334 35.6833C21.05 36.8499 20.3334 36.9999 19.9167 36.9999C19.1667 36.9999 18.6667 36.4166 18.6667 35.8499C18.6667 35.2166 18.9 34.7666 19.2167 34.4999L22 31.9999L19.2167 29.4999C18.8834 29.2166 18.6667 28.7499 18.6667 28.2499C18.6667 27.4999 19.25 26.9999 19.8167 26.9999C20.3334 26.9999 21.05 27.1666 22.4334 28.3333C23.4667 29.1833 24.6167 30.3833 26.1167 31.9999ZM23.8667 42.7166C23.7334 43.1999 23.6667 43.6666 23.6667 44.1833C23.6667 46.6833 25.75 48.6666 28.25 48.6666C29.3 48.6666 30.3334 48.3499 31.1667 47.7499C31.4667 47.5333 31.75 47.2833 32 46.9999C32.25 47.2833 32.5334 47.5333 32.8334 47.7499C33.6667 48.3499 34.7334 48.6666 35.85 48.6666C38.35 48.6666 40.3334 46.5833 40.3334 44.0833C40.3334 43.6166 40.2667 43.1499 40.15 42.6999C39.5 40.3333 37.0834 37.9999 33.0334 34.3166L32.9667 34.2499L32.05 33.4166L32 33.3666L31.95 33.4166L31.0334 34.2499L30.9667 34.2999C26.95 37.9666 24.55 40.2833 23.8667 42.7166ZM32 37.8833C33.6167 39.3833 34.8167 40.5333 35.6834 41.5666C36.85 42.9499 37 43.6666 37 44.0833C37 44.8333 36.4167 45.3333 35.85 45.3333C35.2167 45.3333 34.7667 45.0999 34.5 44.7833L32 41.9999L29.5 44.7833C29.2167 45.1166 28.75 45.3333 28.25 45.3333C27.5 45.3333 27 44.7499 27 44.1833C27 43.6666 27.1667 42.9499 28.3334 41.5666C29.1834 40.5333 30.3834 39.3833 32 37.8833ZM34.3167 33.0333C37.9834 37.0499 40.2834 39.4499 42.7167 40.1332C43.2 40.2666 43.6667 40.3333 44.1834 40.3333C46.6834 40.3333 48.6667 38.2499 48.6667 35.7499C48.6667 34.6999 48.35 33.6666 47.75 32.8333C47.5334 32.5333 47.2834 32.2499 47 31.9999C47.2834 31.7499 47.5334 31.4666 47.75 31.1666C48.35 30.3333 48.6667 29.2833 48.6667 28.1499C48.6667 25.6499 46.5834 23.6666 44.0834 23.6666C43.6167 23.6666 43.15 23.7333 42.7 23.8499C40.3334 24.4999 38 26.9166 34.3167 30.9666L34.2667 31.0333L33.3834 31.9999L34.2667 32.9666L34.3167 33.0333ZM37.9 31.9999C39.3834 30.3833 40.55 29.1833 41.5667 28.3166C42.9667 27.1499 43.6667 26.9999 44.0834 26.9999C44.8334 26.9999 45.3334 27.5833 45.3334 28.1499C45.3334 28.7833 45.1 29.2333 44.7834 29.4999L42 31.9999L44.7834 34.4999C45.1167 34.7999 45.3334 35.2499 45.3334 35.7499C45.3334 36.4999 44.75 36.9999 44.1834 36.9999C43.6667 36.9999 42.95 36.8333 41.5667 35.6666C40.55 34.8166 39.3834 33.6166 37.9 31.9999ZM33.0334 29.6999C37.05 26.0333 39.45 23.7166 40.1334 21.2999C40.2667 20.8166 40.3334 20.3333 40.3334 19.8166C40.3334 17.3166 38.25 15.3333 35.75 15.3333C34.7 15.3333 33.6667 15.6499 32.8334 16.2499C32.5334 16.4666 32.25 16.7166 32 16.9999C31.75 16.7166 31.4667 16.4666 31.1667 16.2499C30.3334 15.6499 29.2834 15.3333 28.15 15.3333C25.65 15.3333 23.6667 17.4166 23.6667 19.9166C23.6667 20.3833 23.7334 20.8499 23.85 21.2999C24.5 23.6666 26.9167 25.9999 30.9667 29.6999L31.0334 29.7499L31.95 30.5833L32 30.6333L32.05 30.5999L32.9834 29.7499L33.0334 29.6833M32 26.1166C30.3834 24.6166 29.1834 23.4666 28.3167 22.4333C27.15 21.0499 27 20.3333 27 19.9166C27 19.1666 27.5834 18.6666 28.15 18.6666C28.7834 18.6666 29.2334 18.8999 29.5 19.2166L32 21.9999L34.5 19.2166C34.8 18.8833 35.25 18.6666 35.75 18.6666C36.5 18.6666 37 19.2499 37 19.8166C37 20.3333 36.8334 21.0499 35.6667 22.4333C34.8167 23.4666 33.6167 24.6166 32 26.1166Z" fill="#1E674E"/>
</svg>
