<svg width="36" height="36" viewBox="0 0 36 36" fill="none" xmlns="http://www.w3.org/2000/svg">
<g clip-path="url(#clip0_1305_24)">
<path d="M17.4413 0.947266C7.98621 0.947266 0.293457 8.59697 0.293457 18.0001C0.293457 27.4033 7.98621 35.0525 17.4413 35.0525C26.8965 35.0525 34.5892 27.4028 34.5892 17.9996C34.5892 8.59647 26.8965 0.947266 17.4413 0.947266ZM32.5237 16.9901H24.0398C24.0124 14.6674 23.7503 12.2933 23.3129 10.1085C25.1924 9.33179 26.7525 8.27577 27.9852 7.23995C30.5784 9.75198 32.2678 13.1781 32.5237 16.9901ZM17.2873 32.9981C17.2852 32.9981 17.2827 32.9981 17.2802 32.9981C16.1316 32.9981 14.7945 29.8113 14.1092 27.4452C16.2152 26.9311 18.4287 26.8983 20.55 27.3442C19.5357 30.7088 18.2072 32.9986 17.2873 32.9981ZM22.4994 27.9003C24.0808 28.474 25.4063 29.2618 26.4651 30.0547C24.7043 31.3613 22.6484 32.2946 20.4172 32.739C21.2358 31.4769 21.9363 29.7825 22.4994 27.9003ZM14.0919 32.6562C12.0528 32.1956 10.1693 31.3264 8.53362 30.1366C9.52202 29.3851 10.7365 28.6366 12.174 28.0624C12.7021 29.876 13.3565 31.4668 14.0919 32.6562ZM17.5452 25.011C16.128 25.011 14.8193 25.1903 13.614 25.4852C13.1771 23.4833 12.8856 21.2566 12.844 19.0097H21.9768C21.8678 21.2586 21.5303 23.4454 21.0705 25.3984C19.9818 25.159 18.8074 25.011 17.5452 25.011ZM12.8805 16.9901C12.9865 14.8846 13.3083 12.7918 13.7645 10.8873C16.8924 11.5014 18.9437 11.3191 21.3741 10.7631C21.7477 12.6973 21.988 14.8301 22.0138 16.9901H12.8805ZM18.5499 3.38808C19.407 4.29158 20.2747 6.27282 20.9296 8.79141C18.7693 9.39088 16.4803 9.4424 14.2957 8.93686C15.1011 6.31676 16.127 4.25977 17.0733 3.36131C17.2786 3.16587 18.0602 2.87144 18.5499 3.38808ZM12.3574 8.33335C10.7603 7.70105 9.43028 6.83492 8.37751 5.97536C10.1825 4.62743 12.3002 3.67393 14.6003 3.23708C13.7539 4.53046 12.9804 6.30363 12.3574 8.33335ZM21.0249 3.39768C23.0022 3.87746 24.829 4.74308 26.418 5.91223C25.4382 6.7021 24.2415 7.48692 22.8456 8.10204C22.3524 6.24706 21.7315 4.61985 21.0249 3.39768ZM6.82142 7.31217C8.09721 8.39547 9.76633 9.51916 11.8237 10.2984C11.3052 12.4413 10.958 14.7477 10.851 16.9901H2.35895C2.61238 13.215 4.27086 9.81713 6.82142 7.31217ZM2.35895 19.0102H10.8181C10.8612 21.3955 11.1683 23.8474 11.6676 26.0907C9.75163 26.8215 8.17578 27.827 6.94814 28.8083C4.32661 26.2917 2.61644 22.8464 2.35895 19.0102ZM28.0359 28.7119C26.864 27.7952 25.1721 26.7084 23.0199 25.9498C23.5598 23.6535 23.8988 21.2187 24.0028 19.0097H32.5237C32.2698 22.7974 30.6007 26.2044 28.0359 28.7119Z" fill="black"/>
</g>
<defs>
<clipPath id="clip0_1305_24">
<rect width="34.2294" height="34.1053" fill="white" transform="translate(0.293457 0.947266)"/>
</clipPath>
</defs>
</svg>
