<svg width="36" height="36" viewBox="0 0 36 36" fill="none" xmlns="http://www.w3.org/2000/svg">
<g clip-path="url(#clip0_1305_28)">
<path d="M27.6061 20.8152H23.6113C23.4872 20.8152 23.3682 20.8643 23.2804 20.9518C23.1926 21.0392 23.1433 21.1578 23.1433 21.2815C23.1401 21.8566 22.9086 22.407 22.4994 22.8125C22.0901 23.218 21.5364 23.4457 20.9592 23.4457C20.3821 23.4457 19.8283 23.218 19.4191 22.8125C19.0098 22.407 18.7783 21.8566 18.7751 21.2815C18.7751 21.1578 18.7258 21.0392 18.6381 20.9518C18.5503 20.8643 18.4313 20.8152 18.3072 20.8152H14.7801V17.3012C14.7801 17.1775 14.7308 17.0589 14.6431 16.9715C14.5553 16.884 14.4363 16.8349 14.3122 16.8349C14.0253 16.8349 13.7413 16.7786 13.4763 16.6692C13.2114 16.5599 12.9706 16.3996 12.7678 16.1975C12.565 15.9954 12.4041 15.7555 12.2943 15.4915C12.1846 15.2275 12.1281 14.9445 12.1281 14.6587C12.1281 14.373 12.1846 14.09 12.2943 13.826C12.4041 13.5619 12.565 13.322 12.7678 13.12C12.9706 12.9179 13.2114 12.7576 13.4763 12.6482C13.7413 12.5389 14.0253 12.4826 14.3122 12.4826C14.4363 12.4826 14.5553 12.4335 14.6431 12.346C14.7308 12.2586 14.7801 12.14 14.7801 12.0163V8.03573C14.7801 7.91206 14.7308 7.79346 14.6431 7.70601C14.5553 7.61857 14.4363 7.56944 14.3122 7.56944H1.01778C0.893668 7.56944 0.774636 7.61857 0.686873 7.70601C0.59911 7.79346 0.549805 7.91206 0.549805 8.03573L0.549805 34.5273C0.549805 34.6509 0.59911 34.7695 0.686873 34.857C0.774636 34.9444 0.893668 34.9935 1.01778 34.9935H27.6057C27.7298 34.9935 27.8489 34.9444 27.9366 34.857C28.0244 34.7695 28.0737 34.6509 28.0737 34.5273V21.2816C28.0737 21.158 28.0245 21.0394 27.9368 20.952C27.8491 20.8645 27.7302 20.8153 27.6061 20.8152ZM13.8439 8.50214V11.5845C13.1056 11.6958 12.4318 12.0672 11.9449 12.6313C11.458 13.1953 11.1902 13.9147 11.1902 14.6587C11.1902 15.4027 11.458 16.122 11.9449 16.6861C12.4318 17.2501 13.1056 17.6215 13.8439 17.7328V20.8153H10.7502C10.6385 20.0797 10.2658 19.4084 9.69969 18.9232C9.13357 18.438 8.41161 18.1712 7.6649 18.1712C6.91819 18.1712 6.19623 18.438 5.63011 18.9232C5.064 19.4084 4.69126 20.0797 4.57958 20.8153H1.48576V8.50214H13.8439ZM1.48576 21.748H5.01279C5.13691 21.748 5.25594 21.6989 5.3437 21.6115C5.43147 21.524 5.48077 21.4054 5.48077 21.2818C5.47918 20.995 5.5345 20.7107 5.64355 20.4453C5.75259 20.1798 5.91322 19.9385 6.11619 19.7352C6.31916 19.5318 6.56047 19.3704 6.82625 19.2603C7.09203 19.1502 7.37703 19.0935 7.66487 19.0935C7.95271 19.0935 8.23771 19.1502 8.50349 19.2603C8.76926 19.3704 9.01057 19.5318 9.21355 19.7352C9.41652 19.9385 9.57714 20.1798 9.68619 20.4453C9.79524 20.7107 9.85055 20.995 9.84896 21.2818C9.84896 21.4054 9.89827 21.524 9.98603 21.6115C10.0738 21.6989 10.1928 21.748 10.3169 21.748H13.8436V24.8304C13.1053 24.9417 12.4315 25.3131 11.9446 25.8772C11.4577 26.4412 11.1899 27.1606 11.1899 27.9046C11.1899 28.6486 11.4577 29.3679 11.9446 29.932C12.4315 30.496 13.1053 30.8674 13.8436 30.9787V34.0612H1.48576V21.748ZM27.1377 34.0611H14.7801V30.5471C14.7801 30.4234 14.7308 30.3048 14.6431 30.2174C14.5553 30.1299 14.4363 30.0808 14.3122 30.0808C14.0253 30.0808 13.7413 30.0245 13.4763 29.9151C13.2114 29.8058 12.9706 29.6455 12.7678 29.4434C12.565 29.2413 12.4041 29.0014 12.2943 28.7374C12.1846 28.4734 12.1281 28.1904 12.1281 27.9046C12.1281 27.6189 12.1846 27.3359 12.2943 27.0719C12.4041 26.8078 12.565 26.5679 12.7678 26.3659C12.9706 26.1638 13.2114 26.0035 13.4763 25.8941C13.7413 25.7848 14.0253 25.7285 14.3122 25.7285C14.4363 25.7285 14.5553 25.6794 14.6431 25.5919C14.7308 25.5045 14.7801 25.3859 14.7801 25.2622V21.748H17.8739C17.9859 22.4834 18.3588 23.1543 18.9249 23.6392C19.491 24.124 20.2127 24.3906 20.9592 24.3906C21.7057 24.3906 22.4274 24.124 22.9935 23.6392C23.5596 23.1543 23.9325 22.4834 24.0445 21.748H27.1377V34.0611ZM34.769 14.3367L32.0248 1.37594C32.0121 1.31601 31.9876 1.25917 31.9529 1.20865C31.9181 1.15814 31.8737 1.11495 31.8221 1.08154C31.7706 1.04814 31.713 1.02518 31.6525 1.01397C31.5921 1.00277 31.53 1.00354 31.4699 1.01624L18.4623 3.75192C18.4021 3.76459 18.3451 3.78894 18.2944 3.82359C18.2437 3.85823 18.2003 3.90249 18.1668 3.95383C18.1333 4.00518 18.1102 4.0626 18.099 4.12282C18.0877 4.18304 18.0885 4.24487 18.1012 4.3048L18.8362 7.77594C18.1375 8.03722 17.5558 8.53938 17.1967 9.19133C16.8376 9.84328 16.7249 10.6019 16.879 11.3295C17.0332 12.0572 17.4439 12.7057 18.0367 13.1575C18.6296 13.6093 19.3653 13.8344 20.1105 13.7921L20.8473 17.2639C20.86 17.3238 20.8844 17.3806 20.9192 17.4312C20.954 17.4817 20.9984 17.5249 21.0499 17.5583C21.1015 17.5917 21.1591 17.6146 21.2195 17.6258C21.28 17.637 21.342 17.6363 21.4022 17.6236L24.8863 16.8913C25.1481 17.588 25.652 18.168 26.3064 18.5261C26.9608 18.8842 27.7224 18.9967 28.4529 18.8431C29.1834 18.6895 29.8345 18.28 30.2879 17.689C30.7412 17.0979 30.9669 16.3645 30.9239 15.6218L34.4077 14.8891C34.5291 14.8636 34.6354 14.791 34.7031 14.6875C34.7709 14.5839 34.7946 14.4577 34.769 14.3367ZM30.3066 14.798C30.1853 14.8236 30.0791 14.8962 30.0114 14.9997C29.9437 15.1032 29.9201 15.2293 29.9456 15.3502C30.0049 15.6299 30.0083 15.9185 29.9556 16.1994C29.903 16.4804 29.7953 16.7483 29.6387 16.9878C29.4821 17.2273 29.2798 17.4337 29.0431 17.5953C28.8065 17.7569 28.5402 17.8704 28.2596 17.9294C27.6927 18.0487 27.1015 17.9387 26.6161 17.6236C26.1306 17.3086 25.7906 16.8143 25.671 16.2495C25.6583 16.1895 25.6339 16.1326 25.5992 16.0821C25.5644 16.0315 25.52 15.9883 25.4684 15.9549C25.4169 15.9215 25.3592 15.8985 25.2988 15.8874C25.2383 15.8762 25.1762 15.877 25.1161 15.8898L21.6664 16.6149L20.9369 13.1778C20.9112 13.0569 20.8384 12.9511 20.7344 12.8836C20.6305 12.8162 20.504 12.7926 20.3826 12.8181C19.8157 12.9373 19.2246 12.8272 18.7391 12.5121C18.4988 12.3561 18.2916 12.1544 18.1295 11.9186C17.9674 11.6829 17.8534 11.4176 17.7942 11.1379C17.735 10.8582 17.7316 10.5697 17.7843 10.2887C17.837 10.0078 17.9447 9.73991 18.1012 9.50043C18.4175 9.01677 18.9136 8.67809 19.4805 8.55889C19.5406 8.54623 19.5976 8.52187 19.6483 8.48723C19.699 8.45258 19.7424 8.40832 19.7759 8.35698C19.8094 8.30564 19.8325 8.24822 19.8437 8.188C19.855 8.12778 19.8542 8.06594 19.8415 8.00602L19.1137 4.56885L31.2056 2.02554L33.7563 14.073L30.3066 14.798Z" fill="#1C191C" stroke="black" stroke-width="0.984375"/>
</g>
<defs>
<clipPath id="clip0_1305_28">
<rect width="34.2294" height="34.1053" fill="white" transform="translate(0.549805 0.947266)"/>
</clipPath>
</defs>
</svg>
