<svg width="36" height="36" viewBox="0 0 36 36" fill="none" xmlns="http://www.w3.org/2000/svg">
<g clip-path="url(#clip0_1305_32)">
<g clip-path="url(#clip1_1305_32)">
<path d="M1.35119 21.1145C1.17325 21.1554 1.01584 21.2577 0.920029 21.4145C0.824216 21.5713 0.789997 21.7555 0.83106 21.9328C1.26906 23.8148 2.01504 25.6082 3.04846 27.2584C3.14427 27.4152 3.30168 27.5243 3.47962 27.5653C3.65756 27.6062 3.84919 27.5721 3.99975 27.4698C4.90998 26.8834 6.42247 27.2652 7.52432 28.3631C8.61933 29.4541 9.00943 30.9679 8.42086 31.8749C8.31821 32.0249 8.29083 32.2158 8.32505 32.3931C8.36611 32.5704 8.47561 32.7272 8.63302 32.8227C10.2892 33.8524 12.0892 34.5957 13.978 35.0321C14.156 35.073 14.3476 35.0389 14.4982 34.9434C14.6556 34.848 14.7582 34.6911 14.7993 34.5138C15.0252 33.4569 16.3665 32.6591 17.9269 32.6591C19.4873 32.6591 20.8219 33.4569 21.0546 34.5138C21.0956 34.6911 21.1983 34.848 21.3557 34.9434C21.4652 35.0116 21.5952 35.0525 21.7253 35.0525C21.7732 35.0525 21.8279 35.0457 21.8758 35.0321C23.7647 34.5957 25.5646 33.8524 27.2209 32.8227C27.3783 32.7272 27.4878 32.5704 27.5288 32.3931C27.5699 32.2158 27.5357 32.0249 27.433 31.8749C26.8444 30.9679 27.2277 29.4609 28.3296 28.3631C29.4246 27.272 30.9439 26.8834 31.8541 27.4698C32.0047 27.5721 32.1963 27.5993 32.3743 27.5653C32.5522 27.5243 32.7096 27.4152 32.8054 27.2584C33.8388 25.6082 34.5848 23.8148 35.0228 21.9328C35.0639 21.7555 35.0297 21.5645 34.9338 21.4145C34.838 21.2577 34.6806 21.1554 34.5027 21.1145C33.4419 20.8894 32.6412 19.5529 32.6412 17.9982C32.6412 16.4434 33.4419 15.1137 34.5027 14.8819C34.6806 14.841 34.838 14.7387 34.9338 14.5819C35.0297 14.425 35.0639 14.2409 35.0228 14.0636C34.5848 12.1816 33.8388 10.3882 32.8054 8.73796C32.7096 8.58113 32.5522 8.47202 32.3743 8.43111C32.1963 8.39019 32.0115 8.42429 31.8541 8.52657C30.9439 9.11301 29.4314 8.73114 28.3296 7.63328C27.2345 6.54224 26.8444 5.02842 27.433 4.12149C27.5357 3.97147 27.563 3.78054 27.5288 3.60325C27.4878 3.42595 27.3783 3.26912 27.2209 3.17365C25.5646 2.14398 23.7647 1.40071 21.8758 0.964291C21.6979 0.923377 21.5063 0.957472 21.3557 1.05294C21.1983 1.1484 21.0956 1.30524 21.0546 1.48254C20.815 2.5463 19.4736 3.34413 17.9201 3.34413C16.3665 3.34413 15.0252 2.5463 14.7925 1.48935C14.7514 1.31206 14.6487 1.15522 14.4913 1.05976C14.3339 0.964291 14.1491 0.930196 13.9712 0.97111C12.0823 1.40753 10.2824 2.1508 8.62618 3.18047C8.46877 3.27594 8.35927 3.43277 8.3182 3.61007C8.27714 3.78736 8.31136 3.97147 8.41402 4.12831C9.00259 5.03524 8.61933 6.54224 7.51748 7.6401C6.42247 8.73114 4.90314 9.11983 3.99291 8.53339C3.84234 8.43111 3.65072 8.40383 3.47278 8.43793C3.29484 8.47884 3.13743 8.58795 3.04162 8.74478C2.0082 10.395 1.26222 12.1884 0.824216 14.0704C0.783153 14.2477 0.817372 14.4387 0.913186 14.5887C1.009 14.7455 1.16641 14.8478 1.34435 14.8887C2.40514 15.1137 3.20587 16.4503 3.20587 18.005C3.20587 19.5597 2.41198 20.8826 1.35119 21.1145ZM2.30933 13.784C2.67205 12.4543 3.19902 11.186 3.89025 9.98584C5.30692 10.4768 7.13422 9.95175 8.48246 8.60158C9.83753 7.25142 10.3577 5.43074 9.87175 4.02603C11.0763 3.33731 12.3561 2.80542 13.6838 2.45084C14.3339 3.79418 15.997 4.71475 17.9132 4.71475C19.8295 4.71475 21.4926 3.79418 22.1427 2.45084C23.4773 2.81224 24.7502 3.33731 25.9547 4.02603C25.462 5.43756 25.989 7.25824 27.344 8.60158C28.6991 9.94493 30.5264 10.4768 31.9362 9.98584C32.6275 11.186 33.1613 12.4611 33.5172 13.784C32.1689 14.4318 31.245 16.0889 31.245 17.9982C31.245 19.9075 32.1689 21.5645 33.5172 22.2123C33.1544 23.542 32.6275 24.8104 31.9362 26.0105C30.5196 25.5196 28.6923 26.0446 27.344 27.3948C25.989 28.7449 25.4688 30.5656 25.9547 31.9703C24.7502 32.6591 23.4704 33.1909 22.1427 33.5455C21.4926 32.2022 19.8295 31.2816 17.9132 31.2816C15.997 31.2816 14.3339 32.2022 13.6838 33.5455C12.3492 33.1841 11.0763 32.6591 9.87175 31.9703C10.3645 30.5588 9.83753 28.7381 8.48246 27.3948C7.12738 26.0446 5.30008 25.5264 3.89025 26.0105C3.19902 24.8172 2.67205 23.542 2.30933 22.2123C3.65756 21.5645 4.58148 19.9075 4.58148 17.9982C4.58148 16.0889 3.65756 14.4318 2.30933 13.784Z" fill="black" stroke="black" stroke-width="0.421875"/>
<path d="M17.9198 28.0495C23.4839 28.0495 28.0076 23.5421 28.0076 17.9982C28.0076 12.4544 23.4839 7.94702 17.9198 7.94702C12.3558 7.94702 7.83203 12.4544 7.83203 17.9982C7.83203 23.5421 12.3558 28.0495 17.9198 28.0495ZM17.9198 9.31082C22.7242 9.31082 26.6389 13.2045 26.6389 17.9982C26.6389 22.792 22.7242 26.6857 17.9198 26.6857C13.1155 26.6857 9.2008 22.7852 9.2008 17.9982C9.2008 13.2113 13.1155 9.31082 17.9198 9.31082Z" fill="black" stroke="black" stroke-width="0.421875"/>
<path d="M13.3003 22.6009C13.4372 22.7373 13.6083 22.7987 13.7862 22.7987C13.9641 22.7987 14.1352 22.7305 14.2721 22.6009L22.5394 14.3636C22.8064 14.0976 22.8064 13.668 22.5394 13.4021C22.2725 13.1362 21.8414 13.1362 21.5745 13.4021L13.3003 21.6326C13.0334 21.8986 13.0334 22.335 13.3003 22.6009Z" fill="black" stroke="black" stroke-width="0.421875"/>
<path d="M15.0729 17.5822C15.723 17.5822 16.3321 17.3299 16.7907 16.8731C17.2492 16.4162 17.5024 15.8093 17.5024 15.1615C17.5024 14.5137 17.2492 13.9068 16.7907 13.4499C15.8462 12.5089 14.2995 12.5089 13.3551 13.4499C12.4038 14.3909 12.4038 15.932 13.3551 16.8731C13.8136 17.3299 14.4227 17.5822 15.0729 17.5822ZM14.32 14.4114C14.5254 14.2068 14.7991 14.1045 15.0729 14.1045C15.3466 14.1045 15.6135 14.2068 15.8257 14.4114C16.0242 14.6091 16.1337 14.8751 16.1337 15.1615C16.1337 15.4479 16.0242 15.707 15.8188 15.9116C15.4151 16.3139 14.717 16.3139 14.32 15.9116C13.9094 15.4956 13.9094 14.8273 14.32 14.4114Z" fill="black" stroke="black" stroke-width="0.421875"/>
<path d="M22.4852 19.1232C21.5408 18.1822 19.9941 18.1822 19.0496 19.1232C18.1052 20.0711 18.1052 21.6054 19.0496 22.5464C19.5219 23.0169 20.1447 23.2556 20.7674 23.2556C21.3902 23.2556 22.013 23.0169 22.4852 22.5464C23.4365 21.6054 23.4365 20.0643 22.4852 19.1232ZM21.5203 21.5849C21.1028 22.0009 20.4321 22.0009 20.0146 21.5849C19.5972 21.169 19.5972 20.5007 20.0146 20.0847C20.2199 19.8802 20.4937 19.7779 20.7674 19.7779C21.0412 19.7779 21.3081 19.8802 21.5203 20.0847C21.9309 20.5007 21.9309 21.169 21.5203 21.5849Z" fill="black" stroke="black" stroke-width="0.421875"/>
</g>
</g>
<defs>
<clipPath id="clip0_1305_32">
<rect width="36" height="36" fill="white"/>
</clipPath>
<clipPath id="clip1_1305_32">
<rect width="34.2294" height="34.1053" fill="white" transform="translate(0.805664 0.947266)"/>
</clipPath>
</defs>
</svg>
