<svg width="36" height="36" viewBox="0 0 36 36" fill="none" xmlns="http://www.w3.org/2000/svg">
<g clip-path="url(#clip0_1305_13)">
<path d="M35.0544 34.8906H16.001V15.1328L35.0544 21.4609V34.8906Z" stroke="black" stroke-width="2.10937" stroke-miterlimit="10" stroke-linecap="round" stroke-linejoin="round"/>
<path d="M16.001 34.8906H1.04053V23.4297L16.001 18.4607" stroke="black" stroke-width="2.10937" stroke-miterlimit="10" stroke-linecap="round" stroke-linejoin="round"/>
<path d="M27.7632 18.7349L28.2473 5.85156H32.4814L33.029 20.4836" stroke="black" stroke-width="2.10937" stroke-miterlimit="10" stroke-linecap="round" stroke-linejoin="round"/>
<path d="M27.6447 26.0312H23.4106V34.8906H27.6447V26.0312Z" stroke="black" stroke-width="2.10937" stroke-miterlimit="10" stroke-linecap="round" stroke-linejoin="round"/>
<path d="M10.6379 26.0312H6.40381V30.25H10.6379V26.0312Z" stroke="black" stroke-width="2.10937" stroke-miterlimit="10" stroke-linecap="round" stroke-linejoin="round"/>
<path d="M5.41113 7.65954L6.97443 9.21717L9.64996 6.55127" stroke="black" stroke-width="2.10937" stroke-miterlimit="10" stroke-linecap="round" stroke-linejoin="round"/>
<path d="M7.60339 14.0781C11.228 14.0781 14.1662 11.1505 14.1662 7.53906C14.1662 3.92764 11.228 1 7.60339 1C3.97882 1 1.04053 3.92764 1.04053 7.53906C1.04053 11.1505 3.97882 14.0781 7.60339 14.0781Z" stroke="black" stroke-width="2.10937" stroke-miterlimit="10" stroke-linecap="round" stroke-linejoin="round"/>
<path d="M28.6577 10.0703H32.0907" stroke="black" stroke-width="2.10937" stroke-miterlimit="10" stroke-linecap="round" stroke-linejoin="round"/>
</g>
<defs>
<clipPath id="clip0_1305_13">
<rect width="36" height="36" fill="white"/>
</clipPath>
</defs>
</svg>
