<svg width="32" height="32" viewBox="0 0 32 32" fill="none" xmlns="http://www.w3.org/2000/svg">
<path d="M15.9998 17.2506C11.5196 17.2506 7.87451 13.6055 7.87451 9.12531C7.87451 4.64514 11.5196 1 15.9998 1C20.48 1 24.1251 4.64514 24.1251 9.12531C24.1251 13.6055 20.48 17.2506 15.9998 17.2506ZM15.9998 2.25005C12.2097 2.25005 9.12456 5.33391 9.12456 9.12531C9.12456 12.9167 12.2097 16.0006 15.9998 16.0006C19.79 16.0006 22.8751 12.9167 22.8751 9.12531C22.8751 5.33391 19.79 2.25005 15.9998 2.25005Z" fill="#E8F2FB" stroke="#E8F2FB" stroke-width="0.5"/>
<path d="M16.0002 13.5004C13.5876 13.5004 11.625 11.5378 11.625 9.12523C11.625 6.71263 13.5876 4.75006 16.0002 4.75006C18.4128 4.75006 20.3753 6.71263 20.3753 9.12523C20.3753 11.5378 18.4128 13.5004 16.0002 13.5004ZM16.0002 6.00011C14.2764 6.00011 12.875 7.40266 12.875 9.12523C12.875 10.8478 14.2764 12.2503 16.0002 12.2503C17.724 12.2503 19.1253 10.8478 19.1253 9.12523C19.1253 7.40266 17.724 6.00011 16.0002 6.00011Z" fill="#E8F2FB" stroke="#E8F2FB" stroke-width="0.5"/>
<path d="M21.6251 31C20.9851 31 20.345 30.7562 19.8575 30.2687L15.9999 26.2748L12.1497 30.26C11.1684 31.2437 9.58087 31.2437 8.60709 30.2675C8.13457 29.7962 7.87456 29.1687 7.87456 28.5011C7.87456 27.8324 8.13457 27.2048 8.60709 26.7336L12.3835 23.0372C12.1497 22.9784 11.9235 22.9159 11.7035 22.8484C10.4022 22.4397 9.17086 21.8521 8.03957 21.1009C7.15453 20.5121 6.62451 19.5296 6.62451 18.4733C6.62451 17.5757 7.09953 16.8032 7.89456 16.4044C8.70209 15.9994 9.66213 16.0882 10.3984 16.6394C13.6548 19.0745 18.345 19.0745 21.6026 16.6394C22.3401 16.0894 23.2989 15.9994 24.1064 16.4044C24.9015 16.802 25.3765 17.5757 25.3765 18.4733C25.3765 19.5296 24.8465 20.5121 23.9602 21.1009C22.8301 21.8521 21.5976 22.4397 20.3 22.8472C20.0788 22.9159 19.8513 22.9784 19.6163 23.0372L23.3889 26.7286C23.8664 27.2048 24.1264 27.8324 24.1264 28.5011C24.1264 29.1687 23.8664 29.7962 23.3939 30.2687C22.9051 30.7562 22.2651 31 21.6251 31ZM15.9999 24.751C16.1699 24.751 16.3324 24.8198 16.4486 24.9423L20.7475 29.3937C21.2063 29.8499 22.0338 29.8587 22.5076 29.3862C22.7426 29.1499 22.8739 28.8362 22.8739 28.5024C22.8739 28.1686 22.7439 27.8549 22.5076 27.6186L17.9037 23.1147C17.7349 22.9509 17.6737 22.7059 17.7437 22.4822C17.8137 22.2584 18.0037 22.0922 18.235 22.0522C18.835 21.9484 19.4062 21.8146 19.9275 21.6546C21.1076 21.2834 22.2339 20.7471 23.2664 20.0608C23.8027 19.7046 24.1239 19.112 24.1239 18.4745C24.1239 17.8782 23.7189 17.6107 23.5439 17.5232C23.1576 17.3295 22.7114 17.3732 22.3501 17.6407C20.5025 19.0208 18.3075 19.7508 15.9986 19.7508C13.6898 19.7508 11.4934 19.022 9.64713 17.6407C9.28711 17.3732 8.8396 17.3282 8.45333 17.5232C8.27957 17.6095 7.87456 17.877 7.87456 18.4733C7.87456 19.1095 8.19582 19.7021 8.73209 20.0596C9.76463 20.7459 10.8909 21.2821 12.0747 21.6546C12.5935 21.8134 13.1635 21.9471 13.7648 22.0509C13.996 22.0909 14.186 22.2572 14.2561 22.4809C14.3261 22.7059 14.2648 22.9497 14.096 23.1134L9.48712 27.6211C9.25461 27.8536 9.12461 28.1674 9.12461 28.5011C9.12461 28.8349 9.25461 29.1487 9.49087 29.3849C9.96464 29.8574 10.7847 29.8574 11.2584 29.3849L15.5511 24.9423C15.6674 24.8198 15.8299 24.751 15.9999 24.751Z" fill="#E8F2FB" stroke="#E8F2FB" stroke-width="0.5"/>
</svg>
