<svg width="32" height="32" viewBox="0 0 32 32" fill="none" xmlns="http://www.w3.org/2000/svg">
<path fill-rule="evenodd" clip-rule="evenodd" d="M28.925 6.0625C29.3164 4.21803 27.4422 2.68524 25.6252 3.36383L3.35244 11.6819C1.32332 12.4396 1.2329 15.1823 3.20798 16.0634L8.05837 18.2273L10.3658 26.0335C10.4856 26.4389 10.8185 26.7529 11.2408 26.8587C11.6631 26.9644 12.1118 26.8463 12.4203 26.5481L15.9746 23.1125L20.9535 26.722C22.3988 27.7697 24.4804 27.0065 24.8433 25.2959L28.925 6.0625ZM4.23994 13.9022L26.5127 5.58419L22.431 24.8177L16.5979 20.5889C16.1077 20.2335 15.4218 20.2806 14.9885 20.6994L13.4661 22.1709L13.9235 19.7393L22.8861 11.0761C23.3224 10.6545 23.3684 9.98594 22.994 9.5121C22.6195 9.03825 21.9402 8.90535 21.4046 9.20117L9.02706 16.0378L4.23994 13.9022ZM10.5362 17.9458L11.2829 20.4717L11.5695 18.9477C11.6143 18.7096 11.7332 18.4902 11.9103 18.3191L14.6436 15.6772L10.5362 17.9458Z" fill="#E8F2FB"/>
</svg>
