<svg width="34" height="32" viewBox="0 0 34 32" fill="none" xmlns="http://www.w3.org/2000/svg">
<path d="M31.3853 25.3346H26.628C25.8293 25.3346 25.08 25.024 24.516 24.46L21.748 21.692C21.5213 21.4653 21.2067 21.3346 20.8867 21.3346C20.2147 21.3346 19.668 21.8813 19.668 22.5533V23.696C19.668 24.6 18.9333 25.3346 18.0293 25.3346H13.6667C10.6133 25.3346 5.70933 18.476 2.132 12.7226C1.39067 11.5293 1 10.1506 1 8.7373V8.3973C1 7.44397 1.776 6.66797 2.72933 6.66797H7C7.25067 6.66797 7.48133 6.8093 7.59467 7.0333C8.532 8.88397 11.1747 13.8986 12.1373 14.8626C12.3827 15.1066 12.6187 15.2506 12.768 15.2213C12.856 15.2133 12.9387 15.1573 13 15.1V10.0373C13 9.33197 12.7253 8.67064 12.2267 8.17197L11.8613 7.80664C11.6707 7.61597 11.6133 7.3293 11.7173 7.07997C11.82 6.83064 12.064 6.66797 12.3333 6.66797H18.208C19.012 6.66797 19.6667 7.32264 19.6667 8.12664V14.9466C20.036 15.1173 20.6973 15.312 21.22 14.8413C21.7787 14.3346 23.172 11.5573 24.7667 7.76397C25.0467 7.09864 25.696 6.66797 26.4213 6.66797H31.0987C32.1467 6.66797 33 7.5213 33 8.57064C33 9.64397 32.6307 10.6973 31.96 11.536L27.6667 16.9026V17.7266L32.5253 22.5853C32.988 23.048 33.1253 23.7373 32.8747 24.3413C32.624 24.944 32.04 25.3346 31.3853 25.3346ZM20.8853 20.0013C21.5667 20.0013 22.208 20.2666 22.6907 20.7493L25.4587 23.5173C25.7667 23.8253 26.1933 24.0013 26.628 24.0013H31.3853C31.548 24.0013 31.616 23.8933 31.6427 23.8293C31.6693 23.7653 31.6973 23.64 31.5827 23.5253L26.5293 18.472C26.404 18.348 26.3333 18.1786 26.3333 18.0013V16.668C26.3333 16.516 26.3853 16.3693 26.4787 16.2506L30.9187 10.7013C31.4013 10.1 31.6667 9.34264 31.6667 8.57064C31.6667 8.2573 31.412 8.0013 31.0973 8.0013H26.42C26.2333 8.0013 26.0653 8.11064 25.9947 8.27997C24.744 11.252 23.056 14.9746 22.1133 15.828C20.8773 16.9466 19.284 16.3493 18.616 15.8786C18.4387 15.756 18.3333 15.552 18.3333 15.3346V8.12664C18.3333 8.0573 18.2773 8.0013 18.208 8.0013H13.7747C14.1387 8.61064 14.3333 9.3093 14.3333 10.0373V15.3346C14.3333 15.456 14.3013 15.5746 14.2387 15.6773C14.192 15.756 13.7573 16.444 12.936 16.544C12.3493 16.6186 11.7587 16.3693 11.1947 15.8053C10.036 14.6466 7.372 9.52664 6.59067 7.99997H2.72933C2.51067 8.0013 2.33333 8.17997 2.33333 8.3973V8.7373C2.33333 9.90264 2.656 11.0373 3.26533 12.0186C7.86 19.4093 11.8453 24.0013 13.6667 24.0013H18.028C18.196 24.0013 18.3333 23.864 18.3333 23.696V22.5533C18.3333 21.1466 19.4787 20.0013 20.8853 20.0013Z" fill="#E8F2FB" stroke="#E8F2FB" stroke-width="0.5"/>
</svg>
