<svg width="32" height="32" viewBox="0 0 32 32" fill="none" xmlns="http://www.w3.org/2000/svg">
<path d="M16.0517 3.20001C9.02773 3.20001 3.30311 8.89601 3.30311 15.8848C3.30311 18.1248 3.89487 20.3008 5.0012 22.2208L3.2002 28.8L9.95396 27.0336C11.8193 28.0448 13.9162 28.5824 16.0517 28.5824C23.0756 28.5824 28.8002 22.8864 28.8002 15.8976C28.8002 12.5056 27.4752 9.31841 25.0695 6.92481C22.6639 4.51841 19.4607 3.20001 16.0517 3.20001ZM16.0645 5.33761C18.8947 5.33761 21.5447 6.43841 23.5515 8.43521C25.5455 10.432 26.6519 13.0816 26.6519 15.8976C26.6519 21.7088 21.8921 26.432 16.0517 26.432C14.1477 26.432 12.2824 25.9328 10.6615 24.96L10.2756 24.7424L6.2619 25.792L7.32964 21.9008L7.07236 21.4912C6.01748 19.84 5.45145 17.8816 5.45145 15.8848C5.46432 10.0736 10.2112 5.33761 16.0645 5.33761ZM11.5363 10.0224C11.3304 10.0224 10.9831 10.0992 10.6872 10.4192C10.4042 10.7392 9.56803 11.52 9.56803 13.0688C9.56803 14.6304 10.713 16.128 10.8545 16.3456C11.0346 16.5632 13.1186 19.7632 16.3218 21.12C17.0808 21.4656 17.6726 21.6576 18.1357 21.7984C18.8947 22.0416 19.5893 22.0032 20.1425 21.9264C20.76 21.8368 22.0207 21.1584 22.2908 20.416C22.561 19.6736 22.561 19.0464 22.4838 18.9056C22.3938 18.7776 22.1879 18.7008 21.8663 18.56C21.5447 18.3808 19.9753 17.6128 19.6923 17.5104C19.3964 17.408 19.2163 17.3568 18.9719 17.664C18.766 17.984 18.1485 18.7008 17.9684 18.9056C17.7755 19.1232 17.5954 19.1488 17.2866 18.9952C16.9522 18.8288 15.923 18.496 14.7138 17.4208C13.7618 16.576 13.1315 15.5392 12.9385 15.2192C12.7841 14.912 12.9256 14.72 13.08 14.5792C13.2215 14.4384 13.4273 14.208 13.556 14.016C13.7232 13.8368 13.7747 13.696 13.8776 13.4912C13.9805 13.2736 13.929 13.0944 13.8519 12.9408C13.7747 12.8 13.1315 11.2128 12.8613 10.5856C12.604 9.97121 12.3467 10.048 12.1409 10.0352C11.9608 10.0352 11.755 10.0224 11.5363 10.0224Z" fill="#E8F2FB"/>
</svg>
