<svg width="40" height="40" viewBox="0 0 40 40" fill="none" xmlns="http://www.w3.org/2000/svg">
<path d="M38.1668 35.3332L31.3335 28.4998C32.0002 26.8332 31.6668 24.6665 30.1668 23.3332C28.6668 21.8332 26.5002 21.4998 24.6668 22.3332L27.8335 25.4998L25.5002 27.8332L22.1668 24.4998C21.3335 26.3332 21.6668 28.4998 23.1668 30.1665C24.6668 31.6665 26.6668 31.9998 28.3335 31.3332L35.1668 38.1665C35.5002 38.4998 36.0002 38.4998 36.1668 38.1665L37.8335 36.4998C38.3335 35.9998 38.3335 35.4998 38.1668 35.3332ZM16.6668 19.9998C20.3335 19.9998 23.3335 16.9998 23.3335 13.3332C23.3335 9.6665 20.3335 6.6665 16.6668 6.6665C13.0002 6.6665 10.0002 9.6665 10.0002 13.3332C10.0002 16.9998 13.0002 19.9998 16.6668 19.9998ZM16.6668 9.99984C18.5002 9.99984 20.0002 11.4998 20.0002 13.3332C20.0002 15.1665 18.5002 16.6665 16.6668 16.6665C14.8335 16.6665 13.3335 15.1665 13.3335 13.3332C13.3335 11.4998 14.8335 9.99984 16.6668 9.99984ZM21.6668 33.3332H3.3335V28.3332C3.3335 23.8332 12.1668 21.6665 16.6668 21.6665C17.5002 21.6665 18.6668 21.8332 19.8335 21.9998C19.1668 22.8332 18.8335 23.8332 18.5002 24.9998C17.8335 24.9998 17.3335 24.8332 16.6668 24.8332C11.6668 24.8332 6.50016 27.3332 6.50016 28.3332V30.1665H19.1668C19.6668 31.4998 20.6668 32.4998 21.6668 33.3332Z" fill="#FFB548"/>
</svg>
