<svg width="40" height="40" viewBox="0 0 40 40" fill="none" xmlns="http://www.w3.org/2000/svg">
<path d="M15.8332 11.6665C17.2165 11.6665 18.3332 12.7832 18.3332 14.1665C18.3332 15.5499 17.2165 16.6665 15.8332 16.6665C14.4499 16.6665 13.3332 15.5499 13.3332 14.1665C13.3332 12.7832 14.4499 11.6665 15.8332 11.6665ZM24.1665 23.3332C25.5499 23.3332 26.6665 24.4499 26.6665 25.8332C26.6665 27.2165 25.5499 28.3332 24.1665 28.3332C22.7832 28.3332 21.6665 27.2165 21.6665 25.8332C21.6665 24.4499 22.7832 23.3332 24.1665 23.3332ZM14.0165 28.3332L11.6665 25.9832L25.9832 11.6665L28.3332 14.0165L14.0165 28.3332ZM31.0832 4.74987L32.0999 11.1832L37.9499 14.1665L34.9999 19.9999L37.9665 25.8332L32.0665 28.8165L31.0499 35.2499L24.5665 34.2332L19.9499 38.8499L15.3165 34.1665L8.8832 35.2332L7.84987 28.7499L2.0332 25.7832L4.99987 19.9499L2.04987 14.1665L7.89987 11.1499L8.91654 4.7832L15.3665 5.8332L19.9999 1.1582L24.5999 5.76654L31.0832 4.74987ZM33.4999 15.6165L29.1665 13.3332L28.3332 8.51654L23.4999 9.21654L19.9999 5.8332L16.4999 9.21654L11.6665 8.51654L10.8332 13.3332L6.49987 15.6165L8.66654 19.9999L6.49987 24.3832L10.8332 26.6665L11.6665 31.4832L16.4999 30.7832L19.9999 34.1665L23.4999 30.7832L28.3332 31.4832L29.1665 26.6665L33.4999 24.3832L31.3332 19.9999L33.4999 15.6165Z" fill="#06CC4D"/>
</svg>
